  0
SECTION
  2
HEADER
  9
$ACADVER
  1
AC1014
  9
$ACADMAINTVER
 70
     9
  9
$DWGCODEPAGE
  3
ANSI_1252
  9
$INSBASE
 10
0.0
 20
0.0
 30
0.0
  9
$EXTMIN
 10
1.000000000000000E+20
 20
1.000000000000000E+20
 30
1.000000000000000E+20
  9
$EXTMAX
 10
-1.000000000000000E+20
 20
-1.000000000000000E+20
 30
-1.000000000000000E+20
  9
$LIMMIN
 10
0.0
 20
0.0
  9
$LIMMAX
 10
12.0
 20
9.0
  9
$ORTHOMODE
 70
     0
  9
$REGENMODE
 70
     1
  9
$FILLMODE
 70
     1
  9
$QTEXTMODE
 70
     0
  9
$MIRRTEXT
 70
     1
  9
$DRAGMODE
 70
     2
  9
$LTSCALE
 40
1.0
  9
$OSMODE
 70
    37
  9
$ATTMODE
 70
     1
  9
$TEXTSIZE
 40
0.2
  9
$TRACEWID
 40
0.05
  9
$TEXTSTYLE
  7
STANDARD
  9
$CLAYER
  8
0
  9
$CELTYPE
  6
BYLAYER
  9
$CECOLOR
 62
   256
  9
$CELTSCALE
 40
1.0
  9
$DELOBJ
 70
     1
  9
$DISPSILH
 70
     0
  9
$DIMSCALE
 40
1.0
  9
$DIMASZ
 40
0.18
  9
$DIMEXO
 40
0.0625
  9
$DIMDLI
 40
0.38
  9
$DIMRND
 40
0.0
  9
$DIMDLE
 40
0.0
  9
$DIMEXE
 40
0.18
  9
$DIMTP
 40
0.0
  9
$DIMTM
 40
0.0
  9
$DIMTXT
 40
0.18
  9
$DIMCEN
 40
0.09
  9
$DIMTSZ
 40
0.0
  9
$DIMTOL
 70
     0
  9
$DIMLIM
 70
     0
  9
$DIMTIH
 70
     1
  9
$DIMTOH
 70
     1
  9
$DIMSE1
 70
     0
  9
$DIMSE2
 70
     0
  9
$DIMTAD
 70
     0
  9
$DIMZIN
 70
     0
  9
$DIMBLK
  1

  9
$DIMASO
 70
     1
  9
$DIMSHO
 70
     1
  9
$DIMPOST
  1

  9
$DIMAPOST
  1

  9
$DIMALT
 70
     0
  9
$DIMALTD
 70
     2
  9
$DIMALTF
 40
25.4
  9
$DIMLFAC
 40
1.0
  9
$DIMTOFL
 70
     0
  9
$DIMTVP
 40
0.0
  9
$DIMTIX
 70
     0
  9
$DIMSOXD
 70
     0
  9
$DIMSAH
 70
     0
  9
$DIMBLK1
  1

  9
$DIMBLK2
  1

  9
$DIMSTYLE
  2
STANDARD
  9
$DIMCLRD
 70
     0
  9
$DIMCLRE
 70
     0
  9
$DIMCLRT
 70
     0
  9
$DIMTFAC
 40
1.0
  9
$DIMGAP
 40
0.09
  9
$DIMJUST
 70
     0
  9
$DIMSD1
 70
     0
  9
$DIMSD2
 70
     0
  9
$DIMTOLJ
 70
     1
  9
$DIMTZIN
 70
     0
  9
$DIMALTZ
 70
     0
  9
$DIMALTTZ
 70
     0
  9
$DIMFIT
 70
     3
  9
$DIMUPT
 70
     0
  9
$DIMUNIT
 70
     2
  9
$DIMDEC
 70
     4
  9
$DIMTDEC
 70
     4
  9
$DIMALTU
 70
     2
  9
$DIMALTTD
 70
     2
  9
$DIMTXSTY
  7
STANDARD
  9
$DIMAUNIT
 70
     0
  9
$LUNITS
 70
     2
  9
$LUPREC
 70
     4
  9
$SKETCHINC
 40
0.1
  9
$FILLETRAD
 40
0.5
  9
$AUNITS
 70
     0
  9
$AUPREC
 70
     0
  9
$MENU
  1
.
  9
$ELEVATION
 40
0.0
  9
$PELEVATION
 40
0.0
  9
$THICKNESS
 40
0.0
  9
$LIMCHECK
 70
     0
  9
$CHAMFERA
 40
0.0
  9
$CHAMFERB
 40
0.0
  9
$CHAMFERC
 40
0.0
  9
$CHAMFERD
 40
0.0
  9
$SKPOLY
 70
     0
  9
$TDCREATE
 40
2458689.605321655
  9
$TDUPDATE
 40
2458689.605321724
  9
$TDINDWG
 40
0.0000000116
  9
$TDUSRTIMER
 40
0.0000000116
  9
$USRTIMER
 70
     1
  9
$ANGBASE
 50
0.0
  9
$ANGDIR
 70
     0
  9
$PDMODE
 70
     0
  9
$PDSIZE
 40
0.0
  9
$PLINEWID
 40
0.0
  9
$COORDS
 70
     1
  9
$SPLFRAME
 70
     0
  9
$SPLINETYPE
 70
     6
  9
$SPLINESEGS
 70
     8
  9
$ATTDIA
 70
     0
  9
$ATTREQ
 70
     1
  9
$HANDLING
 70
     1
  9
$HANDSEED
  5
1B6
  9
$SURFTAB1
 70
     6
  9
$SURFTAB2
 70
     6
  9
$SURFTYPE
 70
     6
  9
$SURFU
 70
     6
  9
$SURFV
 70
     6
  9
$UCSNAME
  2

  9
$UCSORG
 10
0.0
 20
0.0
 30
0.0
  9
$UCSXDIR
 10
1.0
 20
0.0
 30
0.0
  9
$UCSYDIR
 10
0.0
 20
1.0
 30
0.0
  9
$PUCSNAME
  2

  9
$PUCSORG
 10
0.0
 20
0.0
 30
0.0
  9
$PUCSXDIR
 10
1.0
 20
0.0
 30
0.0
  9
$PUCSYDIR
 10
0.0
 20
1.0
 30
0.0
  9
$USERI1
 70
     0
  9
$USERI2
 70
     0
  9
$USERI3
 70
     0
  9
$USERI4
 70
     0
  9
$USERI5
 70
     0
  9
$USERR1
 40
0.0
  9
$USERR2
 40
0.0
  9
$USERR3
 40
0.0
  9
$USERR4
 40
0.0
  9
$USERR5
 40
0.0
  9
$WORLDVIEW
 70
     1
  9
$SHADEDGE
 70
     3
  9
$SHADEDIF
 70
    70
  9
$TILEMODE
 70
     1
  9
$MAXACTVP
 70
    64
  9
$PINSBASE
 10
0.0
 20
0.0
 30
0.0
  9
$PLIMCHECK
 70
     0
  9
$PEXTMIN
 10
1.000000000000000E+20
 20
1.000000000000000E+20
 30
1.000000000000000E+20
  9
$PEXTMAX
 10
-1.000000000000000E+20
 20
-1.000000000000000E+20
 30
-1.000000000000000E+20
  9
$PLIMMIN
 10
0.0
 20
0.0
  9
$PLIMMAX
 10
12.0
 20
9.0
  9
$UNITMODE
 70
     0
  9
$VISRETAIN
 70
     1
  9
$PLINEGEN
 70
     0
  9
$PSLTSCALE
 70
     1
  9
$TREEDEPTH
 70
  3020
  9
$PICKSTYLE
 70
     1
  9
$CMLSTYLE
  2
STANDARD
  9
$CMLJUST
 70
     0
  9
$CMLSCALE
 40
1.0
  9
$PROXYGRAPHICS
 70
     1
  9
$MEASUREMENT
 70
     1
  0
ENDSEC
  0
SECTION
  2
CLASSES
  0
CLASS
  1
ACDBDICTIONARYWDFLT
  2
AcDbDictionaryWithDefault
  3
ObjectDBX Classes
 90
        0
280
     0
281
     0
  0
CLASS
  1
VISUALSTYLE
  2
AcDbVisualStyle
  3
ObjectDBX Classes
 90
     4095
280
     0
281
     0
  0
CLASS
  1
MATERIAL
  2
AcDbMaterial
  3
ObjectDBX Classes
 90
     1153
280
     0
281
     0
  0
CLASS
  1
SCALE
  2
AcDbScale
  3
ObjectDBX Classes
 90
     1153
280
     0
281
     0
  0
CLASS
  1
TABLESTYLE
  2
AcDbTableStyle
  3
ObjectDBX Classes
 90
     4095
280
     0
281
     0
  0
CLASS
  1
MLEADERSTYLE
  2
AcDbMLeaderStyle
  3
ACDB_MLEADERSTYLE_CLASS
 90
     4095
280
     0
281
     0
  0
CLASS
  1
SUN
  2
AcDbSun
  3
SCENEOE
 90
     1153
280
     0
281
     0
  0
CLASS
  1
DICTIONARYVAR
  2
AcDbDictionaryVar
  3
ObjectDBX Classes
 90
        0
280
     0
281
     0
  0
CLASS
  1
XRECORD
  2
AcDbXrecord
  3
ObjectDBX Classes
 90
        0
280
     0
281
     0
  0
CLASS
  1
LWPOLYLINE
  2
AcDbPolyline
  3
ObjectDBX Classes
 90
        0
280
     0
281
     1
  0
CLASS
  1
HATCH
  2
AcDbHatch
  3
ObjectDBX Classes
 90
        0
280
     0
281
     1
  0
CLASS
  1
ACDBPLACEHOLDER
  2
AcDbPlaceHolder
  3
ObjectDBX Classes
 90
        0
280
     0
281
     0
  0
CLASS
  1
LAYOUT
  2
AcDbLayout
  3
ObjectDBX Classes
 90
        0
280
     0
281
     0
  0
ENDSEC
  0
SECTION
  2
TABLES
  0
TABLE
  2
VPORT
  5
8
102
{ACAD_XDICTIONARY
360
1AB
102
}
330
0
100
AcDbSymbolTable
 70
     1
  0
VPORT
  5
29
330
8
100
AcDbSymbolTableRecord
100
AcDbViewportTableRecord
  2
*ACTIVE
 70
     0
 10
0.0
 20
0.0
 11
1.0
 21
1.0
 12
0.0
 22
0.0
 13
0.0
 23
0.0
 14
0.5
 24
0.5
 15
0.5
 25
0.5
 16
0.0
 26
0.0
 36
1.0
 17
0.0
 27
0.0
 37
-1000.0
 40
293.4946692415133
 41
2.029661016949153
 42
50.0
 43
263.8074346837554
 44
350.3713090579234
 50
0.0
 51
0.0
 71
     0
 72
   100
 73
     1
 74
     3
 75
     0
 76
     0
 77
     0
 78
     0
  0
ENDTAB
  0
TABLE
  2
LTYPE
  5
5
330
0
100
AcDbSymbolTable
 70
     1
  0
LTYPE
  5
14
330
5
100
AcDbSymbolTableRecord
100
AcDbLinetypeTableRecord
  2
BYBLOCK
 70
     0
  3

 72
    65
 73
     0
 40
0.0
  0
LTYPE
  5
15
330
5
100
AcDbSymbolTableRecord
100
AcDbLinetypeTableRecord
  2
BYLAYER
 70
     0
  3

 72
    65
 73
     0
 40
0.0
  0
LTYPE
  5
16
330
5
100
AcDbSymbolTableRecord
100
AcDbLinetypeTableRecord
  2
CONTINUOUS
 70
     0
  3
Solid line
 72
    65
 73
     0
 40
0.0
  0
ENDTAB
  0
TABLE
  2
LAYER
  5
2
330
0
100
AcDbSymbolTable
 70
     3
  0
LAYER
  5
10
330
2
100
AcDbSymbolTableRecord
100
AcDbLayerTableRecord
  2
0
 70
     0
 62
     7
  6
CONTINUOUS
  0
LAYER
  5
6E
330
2
100
AcDbSymbolTableRecord
100
AcDbLayerTableRecord
  2
PROFILEEDGES
 70
     0
 62
     7
  6
CONTINUOUS
  0
LAYER
  5
6F
330
2
100
AcDbSymbolTableRecord
100
AcDbLayerTableRecord
  2
SECTIONCUTEDGES
 70
     0
 62
     7
  6
CONTINUOUS
  0
ENDTAB
  0
TABLE
  2
STYLE
  5
3
330
0
100
AcDbSymbolTable
 70
     1
  0
STYLE
  5
11
330
3
100
AcDbSymbolTableRecord
100
AcDbTextStyleTableRecord
  2
STANDARD
 70
     0
 40
0.0
 41
1.0
 50
0.0
 71
     0
 42
0.2
  3
txt
  4

  0
ENDTAB
  0
TABLE
  2
VIEW
  5
6
330
0
100
AcDbSymbolTable
 70
     0
  0
ENDTAB
  0
TABLE
  2
UCS
  5
7
330
0
100
AcDbSymbolTable
 70
     0
  0
ENDTAB
  0
TABLE
  2
APPID
  5
9
330
0
100
AcDbSymbolTable
 70
     2
  0
APPID
  5
12
330
9
100
AcDbSymbolTableRecord
100
AcDbRegAppTableRecord
  2
ACAD
 70
     0
  0
APPID
  5
1B5
330
9
100
AcDbSymbolTableRecord
100
AcDbRegAppTableRecord
  2
ACAD_MLEADERVER
 70
     0
  0
ENDTAB
  0
TABLE
  2
DIMSTYLE
  5
A
330
0
100
AcDbSymbolTable
 70
     1
  0
DIMSTYLE
105
27
330
A
100
AcDbSymbolTableRecord
100
AcDbDimStyleTableRecord
  2
STANDARD
 70
     0
  3

  4

  5

  6

  7

 40
1.0
 41
0.18
 42
0.0625
 43
0.38
 44
0.18
 45
0.0
 46
0.0
 47
0.0
 48
0.0
140
0.18
141
0.09
142
0.0
143
25.4
144
1.0
145
0.0
146
1.0
147
0.09
 71
     0
 72
     0
 73
     1
 74
     1
 75
     0
 76
     0
 77
     0
 78
     0
170
     0
171
     2
172
     0
173
     0
174
     0
175
     0
176
     0
177
     0
178
     0
270
     2
271
     4
272
     4
273
     2
274
     2
340
11
275
     0
280
     0
281
     0
282
     0
283
     1
284
     0
285
     0
286
     0
287
     3
288
     0
  0
ENDTAB
  0
TABLE
  2
BLOCK_RECORD
  5
1
330
0
100
AcDbSymbolTable
 70
     1
  0
BLOCK_RECORD
  5
1F
330
1
100
AcDbSymbolTableRecord
100
AcDbBlockTableRecord
  2
*MODEL_SPACE
  0
BLOCK_RECORD
  5
1B
330
1
100
AcDbSymbolTableRecord
100
AcDbBlockTableRecord
  2
*PAPER_SPACE
  0
ENDTAB
  0
ENDSEC
  0
SECTION
  2
BLOCKS
  0
BLOCK
  5
20
330
1F
100
AcDbEntity
  8
0
100
AcDbBlockBegin
  2
*MODEL_SPACE
 70
     0
 10
0.0
 20
0.0
 30
0.0
  3
*MODEL_SPACE
  1

  0
ENDBLK
  5
21
330
1F
100
AcDbEntity
  8
0
100
AcDbBlockEnd
  0
BLOCK
  5
1C
330
1B
100
AcDbEntity
 67
     1
  8
0
100
AcDbBlockBegin
  2
*PAPER_SPACE
 70
     0
 10
0.0
 20
0.0
 30
0.0
  3
*PAPER_SPACE
  1

  0
ENDBLK
  5
1D
330
1B
100
AcDbEntity
 67
     1
  8
0
100
AcDbBlockEnd
  0
ENDSEC
  0
SECTION
  2
ENTITIES
  0
LINE
  5
70
330
1F
100
AcDbEntity
  8
0
100
AcDbLine
 10
-5.870006076278684
 20
111.2288861620451
 30
0.0
 11
-6.42807945352031
 21
110.5454396368923
 31
0.0
  0
LINE
  5
71
330
1F
100
AcDbEntity
  8
0
100
AcDbLine
 10
-6.42807945352031
 20
110.5454396368923
 30
0.0
 11
-6.770997800749254
 21
109.7324500586915
 31
0.0
  0
LINE
  5
72
330
1F
100
AcDbEntity
  8
0
100
AcDbLine
 10
-6.770997800749254
 20
109.7324500586915
 30
0.0
 11
-6.870979912886974
 21
108.8557810080334
 31
0.0
  0
LINE
  5
73
330
1F
100
AcDbEntity
  8
0
100
AcDbLine
 10
-6.870979912886974
 20
108.8557810080334
 30
0.0
 11
-6.719925833824605
 21
107.9864549976506
 31
0.0
  0
LINE
  5
74
330
1F
100
AcDbEntity
  8
0
100
AcDbLine
 10
-6.719925833824605
 20
107.9864549976506
 30
0.0
 11
-6.330073066694522
 21
107.1948996508236
 31
0.0
  0
LINE
  5
75
330
1F
100
AcDbEntity
  8
0
100
AcDbLine
 10
-6.330073066694522
 20
107.1948996508236
 30
0.0
 11
-5.733005164146006
 21
106.5452420741914
 31
0.0
  0
LINE
  5
76
330
1F
100
AcDbEntity
  8
0
100
AcDbLine
 10
-5.733005164146006
 20
106.5452420741914
 30
0.0
 11
-4.97709301674393
 21
106.0901136609503
 31
0.0
  0
LINE
  5
77
330
1F
100
AcDbEntity
  8
0
100
AcDbLine
 10
-4.97709301674393
 20
106.0901136609503
 30
0.0
 11
-4.123576131088181
 21
105.8663862083882
 31
0.0
  0
LINE
  5
78
330
1F
100
AcDbEntity
  8
0
100
AcDbLine
 10
-4.123576131088181
 20
105.8663862083882
 30
0.0
 11
-3.241601369194254
 21
105.8921847841534
 31
0.0
  0
LINE
  5
79
330
1F
100
AcDbEntity
  8
0
100
AcDbLine
 10
-3.241601369194254
 20
105.8921847841534
 30
0.0
 11
-2.402621080964885
 21
106.1654193410673
 31
0.0
  0
LINE
  5
7A
330
1F
100
AcDbEntity
  8
0
100
AcDbLine
 10
-2.402621080964885
 20
106.1654193410673
 30
0.0
 11
-1.674604459744517
 21
106.6639540403173
 31
0.0
  0
LINE
  5
7B
330
1F
100
AcDbEntity
  8
0
100
AcDbLine
 10
-1.674604459744517
 20
106.6639540403173
 30
0.0
 11
-1.116531082502913
 21
107.3474005654701
 31
0.0
  0
LINE
  5
7C
330
1F
100
AcDbEntity
  8
0
100
AcDbLine
 10
-1.116531082502913
 20
107.3474005654701
 30
0.0
 11
-0.7736127352739922
 21
108.160390143671
 31
0.0
  0
LINE
  5
7D
330
1F
100
AcDbEntity
  8
0
100
AcDbLine
 10
-0.7736127352739922
 20
108.160390143671
 30
0.0
 11
-0.6736306231362938
 21
109.0370591943291
 31
0.0
  0
LINE
  5
7E
330
1F
100
AcDbEntity
  8
0
100
AcDbLine
 10
-0.6736306231362938
 20
109.0370591943291
 30
0.0
 11
-0.8246847021986635
 21
109.9063852047118
 31
0.0
  0
LINE
  5
7F
330
1F
100
AcDbEntity
  8
0
100
AcDbLine
 10
-0.8246847021986635
 20
109.9063852047118
 30
0.0
 11
-1.214537469328678
 21
110.6979405515388
 31
0.0
  0
LINE
  5
80
330
1F
100
AcDbEntity
  8
0
100
AcDbLine
 10
-1.214537469328678
 20
110.6979405515388
 30
0.0
 11
-1.81160537187724
 21
111.347598128171
 31
0.0
  0
LINE
  5
81
330
1F
100
AcDbEntity
  8
0
100
AcDbLine
 10
-1.81160537187724
 20
111.347598128171
 30
0.0
 11
-2.567517519279361
 21
111.8027265414121
 31
0.0
  0
LINE
  5
82
330
1F
100
AcDbEntity
  8
0
100
AcDbLine
 10
-2.567517519279361
 20
111.8027265414121
 30
0.0
 11
-3.421034404935065
 21
112.0264539939741
 31
0.0
  0
LINE
  5
83
330
1F
100
AcDbEntity
  8
0
100
AcDbLine
 10
-3.421034404935065
 20
112.0264539939741
 30
0.0
 11
-4.303009166828991
 21
112.000655418209
 31
0.0
  0
LINE
  5
84
330
1F
100
AcDbEntity
  8
0
100
AcDbLine
 10
-4.303009166828991
 20
112.000655418209
 30
0.0
 11
-5.14198945505836
 21
111.727420861295
 31
0.0
  0
LINE
  5
85
330
1F
100
AcDbEntity
  8
0
100
AcDbLine
 10
-5.14198945505836
 20
111.727420861295
 30
0.0
 11
-5.870006076278684
 21
111.2288861620451
 31
0.0
  0
LINE
  5
86
330
1F
100
AcDbEntity
  8
0
100
AcDbLine
 10
4.655838378946921
 20
-74.71980654407496
 30
0.0
 11
4.796942600493986
 21
-74.48914492765942
 31
0.0
  0
LINE
  5
87
330
1F
100
AcDbEntity
  8
0
100
AcDbLine
 10
3.636438725547809
 20
-73.20842076492721
 30
0.0
 11
3.393029215819404
 21
-73.3261789629417
 31
0.0
  0
LINE
  5
88
330
1F
100
AcDbEntity
  8
0
100
AcDbLine
 10
25.92424709934334
 20
-73.16377502706617
 30
0.0
 11
25.65660117034396
 21
-73.2022567021324
 31
0.0
  0
LINE
  5
89
330
1F
100
AcDbEntity
  8
0
100
AcDbLine
 10
3.393029215819404
 20
-73.3261789629417
 30
0.0
 11
3.19265581973972
 21
-73.50774351005738
 31
0.0
  0
LINE
  5
8A
330
1F
100
AcDbEntity
  8
0
100
AcDbLine
 10
25.35122351783132
 20
-85.35605213904498
 30
0.0
 11
25.16095979254767
 21
-85.54818463881277
 31
0.0
  0
LINE
  5
8B
330
1F
100
AcDbEntity
  8
0
100
AcDbLine
 10
26.687534406139
 20
-86.67936541531955
 30
0.0
 11
26.81596113327047
 21
-86.44141214599104
 31
0.0
  0
LINE
  5
8C
330
1F
100
AcDbEntity
  8
0
100
AcDbLine
 10
26.1216452062869
 20
-85.18450973266683
 30
0.0
 11
25.85184490858536
 21
-85.16653803308131
 31
0.0
  0
LINE
  5
8D
330
1F
100
AcDbEntity
  8
0
100
AcDbLine
 10
3.19265581973972
 20
-73.50774351005738
 30
0.0
 11
3.051551598192656
 21
-73.73840512647293
 31
0.0
  0
LINE
  5
8E
330
1F
100
AcDbEntity
  8
0
100
AcDbLine
 10
25.47304071535104
 20
-86.94978507428127
 30
0.0
 11
25.72684899239976
 21
-87.04304032146551
 31
0.0
  0
LINE
  5
8F
330
1F
100
AcDbEntity
  8
0
100
AcDbLine
 10
26.78839749493012
 20
-73.7191307647144
 30
0.0
 11
26.64220919497988
 21
-73.49165732981815
 31
0.0
  0
LINE
  5
90
330
1F
100
AcDbEntity
  8
0
100
AcDbLine
 10
26.43785587592616
 20
-74.9129658832558
 30
0.0
 11
26.64220919497988
 21
-74.7358927243142
 31
0.0
  0
LINE
  5
91
330
1F
100
AcDbEntity
  8
0
100
AcDbLine
 10
25.72684899239976
 20
-87.04304032146551
 30
0.0
 11
25.99664929010129
 21
-87.06101202105101
 31
0.0
  0
LINE
  5
92
330
1F
100
AcDbEntity
  8
0
100
AcDbLine
 10
26.43785587592616
 20
-73.31458417087656
 30
0.0
 11
26.19189302834269
 21
-73.2022567021324
 31
0.0
  0
LINE
  5
93
330
1F
100
AcDbEntity
  8
0
100
AcDbLine
 10
25.20628500370677
 20
-73.49165732981815
 30
0.0
 11
25.06009670375653
 21
-73.7191307647144
 31
0.0
  0
LINE
  5
94
330
1F
100
AcDbEntity
  8
0
100
AcDbLine
 10
25.20628500370677
 20
-74.7358927243142
 30
0.0
 11
25.41063832276052
 21
-74.9129658832558
 31
0.0
  0
LINE
  5
95
330
1F
100
AcDbEntity
  8
0
100
AcDbLine
 10
26.64220919497988
 20
-73.49165732981815
 30
0.0
 11
26.43785587592616
 21
-73.31458417087656
 31
0.0
  0
LINE
  5
96
330
1F
100
AcDbEntity
  8
0
100
AcDbLine
 10
25.65660117034396
 20
-75.02529335199995
 30
0.0
 11
25.92424709934334
 21
-75.06377502706619
 31
0.0
  0
LINE
  5
97
330
1F
100
AcDbEntity
  8
0
100
AcDbLine
 10
25.16095979254767
 20
-85.54818463881277
 30
0.0
 11
25.0325330654162
 21
-85.78613790814128
 31
0.0
  0
LINE
  5
98
330
1F
100
AcDbEntity
  8
0
100
AcDbLine
 10
26.19189302834269
 20
-73.2022567021324
 30
0.0
 11
25.92424709934334
 21
-73.16377502706617
 31
0.0
  0
LINE
  5
99
330
1F
100
AcDbEntity
  8
0
100
AcDbLine
 10
26.86457746913022
 20
-73.97857593070655
 30
0.0
 11
26.78839749493012
 21
-73.7191307647144
 31
0.0
  0
LINE
  5
9A
330
1F
100
AcDbEntity
  8
0
100
AcDbLine
 10
26.86457746913022
 20
-74.2489741234258
 30
0.0
 11
26.86457746913022
 21
-73.97857593070655
 31
0.0
  0
LINE
  5
9B
330
1F
100
AcDbEntity
  8
0
100
AcDbLine
 10
26.78839749493012
 20
-74.50841928941796
 30
0.0
 11
26.86457746913022
 21
-74.2489741234258
 31
0.0
  0
LINE
  5
9C
330
1F
100
AcDbEntity
  8
0
100
AcDbLine
 10
26.64220919497988
 20
-74.7358927243142
 30
0.0
 11
26.78839749493012
 21
-74.50841928941796
 31
0.0
  0
LINE
  5
9D
330
1F
100
AcDbEntity
  8
0
100
AcDbLine
 10
26.19189302834269
 20
-75.02529335199995
 30
0.0
 11
26.43785587592616
 21
-74.9129658832558
 31
0.0
  0
LINE
  5
9E
330
1F
100
AcDbEntity
  8
0
100
AcDbLine
 10
25.92424709934334
 20
-75.06377502706619
 30
0.0
 11
26.19189302834269
 21
-75.02529335199995
 31
0.0
  0
LINE
  5
9F
330
1F
100
AcDbEntity
  8
0
100
AcDbLine
 10
25.41063832276052
 20
-74.9129658832558
 30
0.0
 11
25.65660117034396
 21
-75.02529335199995
 31
0.0
  0
LINE
  5
A0
330
1F
100
AcDbEntity
  8
0
100
AcDbLine
 10
25.06009670375653
 20
-74.50841928941796
 30
0.0
 11
25.20628500370677
 21
-74.7358927243142
 31
0.0
  0
LINE
  5
A1
330
1F
100
AcDbEntity
  8
0
100
AcDbLine
 10
24.98391672955646
 20
-74.2489741234258
 30
0.0
 11
25.06009670375653
 21
-74.50841928941796
 31
0.0
  0
LINE
  5
A2
330
1F
100
AcDbEntity
  8
0
100
AcDbLine
 10
24.98391672955646
 20
-73.97857593070655
 30
0.0
 11
24.98391672955646
 21
-74.2489741234258
 31
0.0
  0
LINE
  5
A3
330
1F
100
AcDbEntity
  8
0
100
AcDbLine
 10
25.06009670375653
 20
-73.7191307647144
 30
0.0
 11
24.98391672955646
 21
-73.97857593070655
 31
0.0
  0
LINE
  5
A4
330
1F
100
AcDbEntity
  8
0
100
AcDbLine
 10
25.41063832276052
 20
-73.31458417087656
 30
0.0
 11
25.20628500370677
 21
-73.49165732981815
 31
0.0
  0
LINE
  5
A5
330
1F
100
AcDbEntity
  8
0
100
AcDbLine
 10
25.65660117034396
 20
-73.2022567021324
 30
0.0
 11
25.41063832276052
 21
-73.31458417087656
 31
0.0
  0
LINE
  5
A6
330
1F
100
AcDbEntity
  8
0
100
AcDbLine
 10
24.99695551822265
 20
-86.32024614752298
 30
0.0
 11
25.09268697944637
 21
-86.57313084448546
 31
0.0
  0
LINE
  5
A7
330
1F
100
AcDbEntity
  8
0
100
AcDbLine
 10
4.796942600493986
 20
-74.48914492765942
 30
0.0
 11
4.867346222657834
 21
-74.22807307430857
 31
0.0
  0
LINE
  5
A8
330
1F
100
AcDbEntity
  8
0
100
AcDbLine
 10
4.867346222657834
 20
-74.22807307430857
 30
0.0
 11
4.861345562677178
 21
-73.95774147292681
 31
0.0
  0
LINE
  5
A9
330
1F
100
AcDbEntity
  8
0
100
AcDbLine
 10
24.97634770608593
 20
-86.05063438831212
 30
0.0
 11
24.99695551822265
 21
-86.32024614752298
 31
0.0
  0
LINE
  5
AA
330
1F
100
AcDbEntity
  8
0
100
AcDbLine
 10
26.49727068085533
 20
-86.87149791508733
 30
0.0
 11
26.687534406139
 21
-86.67936541531955
 31
0.0
  0
LINE
  5
AB
330
1F
100
AcDbEntity
  8
0
100
AcDbLine
 10
4.835765424277105
 20
-85.84612909806681
 30
0.0
 11
4.72343795553295
 21
-85.60016625048334
 31
0.0
  0
LINE
  5
AC
330
1F
100
AcDbEntity
  8
0
100
AcDbLine
 10
26.26058399290003
 20
-87.00224421281918
 30
0.0
 11
26.49727068085533
 21
-86.87149791508733
 31
0.0
  0
LINE
  5
AD
330
1F
100
AcDbEntity
  8
0
100
AcDbLine
 10
4.171598756479156
 20
-73.19654160109863
 30
0.0
 11
3.903164758058792
 21
-73.16400898488212
 31
0.0
  0
LINE
  5
AE
330
1F
100
AcDbEntity
  8
0
100
AcDbLine
 10
25.25578649610569
 20
-86.78880126501485
 30
0.0
 11
25.47304071535104
 21
-86.94978507428127
 31
0.0
  0
LINE
  5
AF
330
1F
100
AcDbEntity
  8
0
100
AcDbLine
 10
26.85153868046402
 20
-85.90730390660934
 30
0.0
 11
26.7558072192403
 21
-85.65441920964686
 31
0.0
  0
LINE
  5
B0
330
1F
100
AcDbEntity
  8
0
100
AcDbLine
 10
25.09268697944637
 20
-86.57313084448546
 30
0.0
 11
25.25578649610569
 21
-86.78880126501485
 31
0.0
  0
LINE
  5
B1
330
1F
100
AcDbEntity
  8
0
100
AcDbLine
 10
25.58791020578662
 20
-85.22530584131314
 30
0.0
 11
25.35122351783132
 21
-85.35605213904498
 31
0.0
  0
LINE
  5
B2
330
1F
100
AcDbEntity
  8
0
100
AcDbLine
 10
25.85184490858536
 20
-85.16653803308131
 30
0.0
 11
25.58791020578662
 21
-85.22530584131314
 31
0.0
  0
LINE
  5
B3
330
1F
100
AcDbEntity
  8
0
100
AcDbLine
 10
26.37545348333563
 20
-85.27776497985106
 30
0.0
 11
26.1216452062869
 21
-85.18450973266683
 31
0.0
  0
LINE
  5
B4
330
1F
100
AcDbEntity
  8
0
100
AcDbLine
 10
26.59270770258098
 20
-85.43874878911747
 30
0.0
 11
26.37545348333563
 21
-85.27776497985106
 31
0.0
  0
LINE
  5
B5
330
1F
100
AcDbEntity
  8
0
100
AcDbLine
 10
26.7558072192403
 20
-85.65441920964686
 30
0.0
 11
26.59270770258098
 21
-85.43874878911747
 31
0.0
  0
LINE
  5
B6
330
1F
100
AcDbEntity
  8
0
100
AcDbLine
 10
26.87214649260072
 20
-86.17691566582019
 30
0.0
 11
26.85153868046402
 21
-85.90730390660934
 31
0.0
  0
LINE
  5
B7
330
1F
100
AcDbEntity
  8
0
100
AcDbLine
 10
26.81596113327047
 20
-86.44141214599104
 30
0.0
 11
26.87214649260072
 21
-86.17691566582019
 31
0.0
  0
LINE
  5
B8
330
1F
100
AcDbEntity
  8
0
100
AcDbLine
 10
25.99664929010129
 20
-87.06101202105101
 30
0.0
 11
26.26058399290003
 21
-87.00224421281918
 31
0.0
  0
LINE
  5
B9
330
1F
100
AcDbEntity
  8
0
100
AcDbLine
 10
25.0325330654162
 20
-85.78613790814128
 30
0.0
 11
24.97634770608593
 21
-86.05063438831212
 31
0.0
  0
LINE
  5
BA
330
1F
100
AcDbEntity
  8
0
100
AcDbLine
 10
4.861345562677178
 20
-73.95774147292681
 30
0.0
 11
4.779426758336343
 21
-73.70005078213414
 31
0.0
  0
LINE
  5
BB
330
1F
100
AcDbEntity
  8
0
100
AcDbLine
 10
4.779426758336343
 20
-73.70005078213414
 30
0.0
 11
4.628226383973196
 21
-73.47587756915304
 31
0.0
  0
LINE
  5
BC
330
1F
100
AcDbEntity
  8
0
100
AcDbLine
 10
4.628226383973196
 20
-73.47587756915304
 30
0.0
 11
4.419993794695317
 21
-73.3033830144898
 31
0.0
  0
LINE
  5
BD
330
1F
100
AcDbEntity
  8
0
100
AcDbLine
 10
4.419993794695317
 20
-73.3033830144898
 30
0.0
 11
4.171598756479156
 21
-73.19654160109863
 31
0.0
  0
LINE
  5
BE
330
1F
100
AcDbEntity
  8
0
100
AcDbLine
 10
3.903164758058792
 20
-73.16400898488212
 30
0.0
 11
3.636438725547809
 21
-73.20842076492721
 31
0.0
  0
LINE
  5
BF
330
1F
100
AcDbEntity
  8
0
100
AcDbLine
 10
2.974247099343323
 20
-86.11377502706615
 30
0.0
 11
3.012728774409559
 21
-86.38142095606553
 31
0.0
  0
LINE
  5
C0
330
1F
100
AcDbEntity
  8
0
100
AcDbLine
 10
4.874247099343319
 20
-86.11377502706615
 30
0.0
 11
4.835765424277105
 21
-85.84612909806681
 31
0.0
  0
LINE
  5
C1
330
1F
100
AcDbEntity
  8
0
100
AcDbLine
 10
4.835765424277105
 20
-86.38142095606553
 30
0.0
 11
4.874247099343319
 21
-86.11377502706615
 31
0.0
  0
LINE
  5
C2
330
1F
100
AcDbEntity
  8
0
100
AcDbLine
 10
4.72343795553295
 20
-86.62738380364898
 30
0.0
 11
4.835765424277105
 21
-86.38142095606553
 31
0.0
  0
LINE
  5
C3
330
1F
100
AcDbEntity
  8
0
100
AcDbLine
 10
4.546364796591351
 20
-86.8317371227027
 30
0.0
 11
4.72343795553295
 21
-86.62738380364898
 31
0.0
  0
LINE
  5
C4
330
1F
100
AcDbEntity
  8
0
100
AcDbLine
 10
4.318891361695115
 20
-86.97792542265296
 30
0.0
 11
4.546364796591351
 21
-86.8317371227027
 31
0.0
  0
LINE
  5
C5
330
1F
100
AcDbEntity
  8
0
100
AcDbLine
 10
4.059446195702946
 20
-87.05410539685305
 30
0.0
 11
4.318891361695115
 21
-86.97792542265296
 31
0.0
  0
LINE
  5
C6
330
1F
100
AcDbEntity
  8
0
100
AcDbLine
 10
3.789048002983696
 20
-87.05410539685305
 30
0.0
 11
4.059446195702946
 21
-87.05410539685305
 31
0.0
  0
LINE
  5
C7
330
1F
100
AcDbEntity
  8
0
100
AcDbLine
 10
3.529602836991527
 20
-86.97792542265296
 30
0.0
 11
3.789048002983696
 21
-87.05410539685305
 31
0.0
  0
LINE
  5
C8
330
1F
100
AcDbEntity
  8
0
100
AcDbLine
 10
3.302129402095314
 20
-86.8317371227027
 30
0.0
 11
3.529602836991527
 21
-86.97792542265296
 31
0.0
  0
LINE
  5
C9
330
1F
100
AcDbEntity
  8
0
100
AcDbLine
 10
3.125056243153714
 20
-86.62738380364898
 30
0.0
 11
3.302129402095314
 21
-86.8317371227027
 31
0.0
  0
LINE
  5
CA
330
1F
100
AcDbEntity
  8
0
100
AcDbLine
 10
3.012728774409559
 20
-86.38142095606553
 30
0.0
 11
3.125056243153714
 21
-86.62738380364898
 31
0.0
  0
LINE
  5
CB
330
1F
100
AcDbEntity
  8
0
100
AcDbLine
 10
3.012728774409559
 20
-85.84612909806681
 30
0.0
 11
2.974247099343323
 21
-86.11377502706615
 31
0.0
  0
LINE
  5
CC
330
1F
100
AcDbEntity
  8
0
100
AcDbLine
 10
3.125056243153714
 20
-85.60016625048334
 30
0.0
 11
3.012728774409559
 21
-85.84612909806681
 31
0.0
  0
LINE
  5
CD
330
1F
100
AcDbEntity
  8
0
100
AcDbLine
 10
3.302129402095314
 20
-85.39581293142962
 30
0.0
 11
3.125056243153714
 21
-85.60016625048334
 31
0.0
  0
LINE
  5
CE
330
1F
100
AcDbEntity
  8
0
100
AcDbLine
 10
3.529602836991527
 20
-85.24962463147936
 30
0.0
 11
3.302129402095314
 21
-85.39581293142962
 31
0.0
  0
LINE
  5
CF
330
1F
100
AcDbEntity
  8
0
100
AcDbLine
 10
3.789048002983696
 20
-85.17344465727928
 30
0.0
 11
3.529602836991527
 21
-85.24962463147936
 31
0.0
  0
LINE
  5
D0
330
1F
100
AcDbEntity
  8
0
100
AcDbLine
 10
4.059446195702946
 20
-85.17344465727928
 30
0.0
 11
3.789048002983696
 21
-85.17344465727928
 31
0.0
  0
LINE
  5
D1
330
1F
100
AcDbEntity
  8
0
100
AcDbLine
 10
4.318891361695115
 20
-85.24962463147936
 30
0.0
 11
4.059446195702946
 21
-85.17344465727928
 31
0.0
  0
LINE
  5
D2
330
1F
100
AcDbEntity
  8
0
100
AcDbLine
 10
4.546364796591351
 20
-85.39581293142962
 30
0.0
 11
4.318891361695115
 21
-85.24962463147936
 31
0.0
  0
LINE
  5
D3
330
1F
100
AcDbEntity
  8
0
100
AcDbLine
 10
4.72343795553295
 20
-85.60016625048334
 30
0.0
 11
4.546364796591351
 21
-85.39581293142962
 31
0.0
  0
LINE
  5
D4
330
1F
100
AcDbEntity
  8
0
100
AcDbLine
 10
2.987148636009486
 20
-74.26980858120552
 30
0.0
 11
3.069067440350299
 21
-74.52749927199821
 31
0.0
  0
LINE
  5
D5
330
1F
100
AcDbEntity
  8
0
100
AcDbLine
 10
3.069067440350299
 20
-74.52749927199821
 30
0.0
 11
3.220267814713468
 21
-74.7516724849793
 31
0.0
  0
LINE
  5
D6
330
1F
100
AcDbEntity
  8
0
100
AcDbLine
 10
3.051551598192656
 20
-73.73840512647293
 30
0.0
 11
2.98114797602883
 21
-73.99947697982377
 31
0.0
  0
LINE
  5
D7
330
1F
100
AcDbEntity
  8
0
100
AcDbLine
 10
3.94532944062785
 20
-75.06354106925023
 30
0.0
 11
4.212055473138856
 21
-75.01912928920514
 31
0.0
  0
LINE
  5
D8
330
1F
100
AcDbEntity
  8
0
100
AcDbLine
 10
4.455464982867238
 20
-74.90137109119065
 30
0.0
 11
4.655838378946921
 21
-74.71980654407496
 31
0.0
  0
LINE
  5
D9
330
1F
100
AcDbEntity
  8
0
100
AcDbLine
 10
4.212055473138856
 20
-75.01912928920514
 30
0.0
 11
4.455464982867238
 21
-74.90137109119065
 31
0.0
  0
LINE
  5
DA
330
1F
100
AcDbEntity
  8
0
100
AcDbLine
 10
3.676895442207486
 20
-75.03100845303372
 30
0.0
 11
3.94532944062785
 21
-75.06354106925023
 31
0.0
  0
LINE
  5
DB
330
1F
100
AcDbEntity
  8
0
100
AcDbLine
 10
3.428500403991324
 20
-74.92416703964254
 30
0.0
 11
3.676895442207486
 21
-75.03100845303372
 31
0.0
  0
LINE
  5
DC
330
1F
100
AcDbEntity
  8
0
100
AcDbLine
 10
3.220267814713468
 20
-74.7516724849793
 30
0.0
 11
3.428500403991324
 21
-74.92416703964254
 31
0.0
  0
LINE
  5
DD
330
1F
100
AcDbEntity
  8
0
100
AcDbLine
 10
2.98114797602883
 20
-73.99947697982377
 30
0.0
 11
2.987148636009486
 21
-74.26980858120552
 31
0.0
  0
LINE
  5
DE
330
1F
100
AcDbEntity
  8
0
100
AcDbLine
 10
8.652560575808094
 20
118.9573857094657
 30
0.0
 11
7.412415669342757
 21
117.8725993204747
 31
0.0
  0
LINE
  5
DF
330
1F
100
AcDbEntity
  8
0
100
AcDbLine
 10
10.04713521901708
 20
119.8348151728932
 30
0.0
 11
8.652560575808094
 21
118.9573857094657
 31
0.0
  0
LINE
  5
E0
330
1F
100
AcDbEntity
  8
0
100
AcDbLine
 10
11.56180054292604
 20
120.4832824853461
 30
0.0
 11
10.04713521901708
 21
119.8348151728932
 31
0.0
  0
LINE
  5
E1
330
1F
100
AcDbEntity
  8
0
100
AcDbLine
 10
13.15926046037432
 20
120.8868202294522
 30
0.0
 11
11.56180054292604
 21
120.4832824853461
 31
0.0
  0
LINE
  5
E2
330
1F
100
AcDbEntity
  8
0
100
AcDbLine
 10
14.80018020652885
 20
121.0354919666867
 30
0.0
 11
13.15926046037432
 21
120.8868202294522
 31
0.0
  0
LINE
  5
E3
330
1F
100
AcDbEntity
  8
0
100
AcDbLine
 10
16.44415489133888
 20
120.9256369054655
 30
0.0
 11
14.80018020652885
 21
121.0354919666867
 31
0.0
  0
LINE
  5
E4
330
1F
100
AcDbEntity
  8
0
100
AcDbLine
 10
18.0507044020252
 20
120.5599600419841
 30
0.0
 11
16.44415489133888
 21
120.9256369054655
 31
0.0
  0
LINE
  5
E5
330
1F
100
AcDbEntity
  8
0
100
AcDbLine
 10
19.58027015780261
 20
119.9474655542332
 30
0.0
 11
18.0507044020252
 21
120.5599600419841
 31
0.0
  0
LINE
  5
E6
330
1F
100
AcDbEntity
  8
0
100
AcDbLine
 10
20.99518917342615
 20
119.1032350892539
 30
0.0
 11
19.58027015780261
 21
119.9474655542332
 31
0.0
  0
LINE
  5
E7
330
1F
100
AcDbEntity
  8
0
100
AcDbLine
 10
22.26062144688418
 20
118.0480564029344
 30
0.0
 11
20.99518917342615
 21
119.1032350892539
 31
0.0
  0
LINE
  5
E8
330
1F
100
AcDbEntity
  8
0
100
AcDbLine
 10
23.34540783587522
 20
116.8079114964691
 30
0.0
 11
22.26062144688418
 21
118.0480564029344
 31
0.0
  0
LINE
  5
E9
330
1F
100
AcDbEntity
  8
0
100
AcDbLine
 10
24.2228372993027
 20
115.4133368532601
 30
0.0
 11
23.34540783587522
 21
116.8079114964691
 31
0.0
  0
LINE
  5
EA
330
1F
100
AcDbEntity
  8
0
100
AcDbLine
 10
24.87130461175562
 20
113.8986715293512
 30
0.0
 11
24.2228372993027
 21
115.4133368532601
 31
0.0
  0
LINE
  5
EB
330
1F
100
AcDbEntity
  8
0
100
AcDbLine
 10
25.27484235586172
 20
112.3012116119028
 30
0.0
 11
24.87130461175562
 21
113.8986715293512
 31
0.0
  0
LINE
  5
EC
330
1F
100
AcDbEntity
  8
0
100
AcDbLine
 10
25.42351409309616
 20
110.6602918657483
 30
0.0
 11
25.27484235586172
 21
112.3012116119028
 31
0.0
  0
LINE
  5
ED
330
1F
100
AcDbEntity
  8
0
100
AcDbLine
 10
4.534835166811683
 20
112.0561327649294
 30
0.0
 11
4.424980105590534
 21
110.4121580801194
 31
0.0
  0
LINE
  5
EE
330
1F
100
AcDbEntity
  8
0
100
AcDbLine
 10
4.900512030293113
 20
113.6626822756157
 30
0.0
 11
4.534835166811683
 21
112.0561327649294
 31
0.0
  0
LINE
  5
EF
330
1F
100
AcDbEntity
  8
0
100
AcDbLine
 10
5.513006518044008
 20
115.1922480313931
 30
0.0
 11
4.900512030293113
 21
113.6626822756157
 31
0.0
  0
LINE
  5
F0
330
1F
100
AcDbEntity
  8
0
100
AcDbLine
 10
6.357236983023234
 20
116.6071670470166
 30
0.0
 11
5.513006518044008
 21
115.1922480313931
 31
0.0
  0
LINE
  5
F1
330
1F
100
AcDbEntity
  8
0
100
AcDbLine
 10
7.412415669342757
 20
117.8725993204747
 30
0.0
 11
6.357236983023234
 21
116.6071670470166
 31
0.0
  0
LINE
  5
F2
330
1F
100
AcDbEntity
  8
0
100
AcDbLine
 10
39.12424709934334
 20
-68.56377502706619
 30
0.0
 11
39.12424709934334
 21
-91.76377502706616
 31
0.0
  0
LINE
  5
F3
330
1F
100
AcDbEntity
  8
0
100
AcDbLine
 10
-9.275752900656666
 20
-91.76377502706616
 30
0.0
 11
-9.275752900656666
 21
-68.56377502706619
 31
0.0
  0
LINE
  5
F4
330
1F
100
AcDbEntity
  8
0
100
AcDbLine
 10
39.12424709934334
 20
-91.76377502706616
 30
0.0
 11
-9.275752900656666
 21
-91.76377502706616
 31
0.0
  0
LINE
  5
F5
330
1F
100
AcDbEntity
  8
0
100
AcDbLine
 10
4.424980105590534
 20
110.4121580801194
 30
0.0
 11
-9.275752900656666
 21
-68.56377502706619
 31
0.0
  0
LINE
  5
F6
330
1F
100
AcDbEntity
  8
0
100
AcDbLine
 10
25.42351409309616
 20
110.6602918657483
 30
0.0
 11
39.12424709934334
 21
-68.56377502706619
 31
0.0
  0
LINE
  5
F7
330
1F
100
AcDbEntity
  8
0
100
AcDbLine
 10
-90.72553136109973
 20
-96.23320580012181
 30
0.0
 11
-90.72553136109973
 21
123.7667941998782
 31
0.0
  0
LINE
  5
F8
330
1F
100
AcDbEntity
  8
0
100
AcDbLine
 10
-90.72553136109973
 20
123.7667941998782
 30
0.0
 11
49.27446863890031
 21
123.7667941998782
 31
0.0
  0
LINE
  5
F9
330
1F
100
AcDbEntity
  8
0
100
AcDbLine
 10
49.27446863890031
 20
123.7667941998782
 30
0.0
 11
49.27446863890031
 21
-96.23320580012181
 31
0.0
  0
LINE
  5
FA
330
1F
100
AcDbEntity
  8
0
100
AcDbLine
 10
49.27446863890031
 20
-96.23320580012181
 30
0.0
 11
-90.72553136109973
 21
-96.23320580012181
 31
0.0
  0
LINE
  5
FB
330
1F
100
AcDbEntity
  8
0
100
AcDbLine
 10
-43.73947252437505
 20
74.8595274377634
 30
0.0
 11
-43.88057674592212
 21
74.62886582134787
 31
0.0
  0
LINE
  5
FC
330
1F
100
AcDbEntity
  8
0
100
AcDbLine
 10
-42.72007287097593
 20
73.34814165861567
 30
0.0
 11
-42.47666336124753
 21
73.46589985663012
 31
0.0
  0
LINE
  5
FD
330
1F
100
AcDbEntity
  8
0
100
AcDbLine
 10
-65.00788124477145
 20
73.3034959207546
 30
0.0
 11
-64.74023531577208
 21
73.34197759582082
 31
0.0
  0
LINE
  5
FE
330
1F
100
AcDbEntity
  8
0
100
AcDbLine
 10
-42.47666336124753
 20
73.46589985663012
 30
0.0
 11
-42.27628996516785
 21
73.64746440374581
 31
0.0
  0
LINE
  5
FF
330
1F
100
AcDbEntity
  8
0
100
AcDbLine
 10
-64.43485766325946
 20
85.49577303273341
 30
0.0
 11
-64.24459393797581
 21
85.6879055325012
 31
0.0
  0
LINE
  5
100
330
1F
100
AcDbEntity
  8
0
100
AcDbLine
 10
-65.77116855156714
 20
86.81908630900799
 30
0.0
 11
-65.89959527869861
 21
86.58113303967946
 31
0.0
  0
LINE
  5
101
330
1F
100
AcDbEntity
  8
0
100
AcDbLine
 10
-65.20527935171503
 20
85.32423062635525
 30
0.0
 11
-64.9354790540135
 21
85.30625892676974
 31
0.0
  0
LINE
  5
102
330
1F
100
AcDbEntity
  8
0
100
AcDbLine
 10
-42.27628996516785
 20
73.64746440374581
 30
0.0
 11
-42.13518574362078
 21
73.87812602016137
 31
0.0
  0
LINE
  5
103
330
1F
100
AcDbEntity
  8
0
100
AcDbLine
 10
-64.55667486077918
 20
87.08950596796969
 30
0.0
 11
-64.8104831378279
 21
87.18276121515392
 31
0.0
  0
LINE
  5
104
330
1F
100
AcDbEntity
  8
0
100
AcDbLine
 10
-65.87203164035824
 20
73.85885165840281
 30
0.0
 11
-65.72584334040799
 21
73.6313782235066
 31
0.0
  0
LINE
  5
105
330
1F
100
AcDbEntity
  8
0
100
AcDbLine
 10
-65.52149002135428
 20
75.05268677694423
 30
0.0
 11
-65.72584334040799
 21
74.87561361800263
 31
0.0
  0
LINE
  5
106
330
1F
100
AcDbEntity
  8
0
100
AcDbLine
 10
-64.8104831378279
 20
87.18276121515392
 30
0.0
 11
-65.08028343552944
 21
87.20073291473943
 31
0.0
  0
LINE
  5
107
330
1F
100
AcDbEntity
  8
0
100
AcDbLine
 10
-65.52149002135428
 20
73.45430506456499
 30
0.0
 11
-65.27552717377081
 21
73.34197759582082
 31
0.0
  0
LINE
  5
108
330
1F
100
AcDbEntity
  8
0
100
AcDbLine
 10
-64.2899191491349
 20
73.6313782235066
 30
0.0
 11
-64.14373084918465
 21
73.85885165840281
 31
0.0
  0
LINE
  5
109
330
1F
100
AcDbEntity
  8
0
100
AcDbLine
 10
-64.2899191491349
 20
74.87561361800263
 30
0.0
 11
-64.49427246818864
 21
75.05268677694423
 31
0.0
  0
LINE
  5
10A
330
1F
100
AcDbEntity
  8
0
100
AcDbLine
 10
-65.72584334040799
 20
73.6313782235066
 30
0.0
 11
-65.52149002135428
 21
73.45430506456499
 31
0.0
  0
LINE
  5
10B
330
1F
100
AcDbEntity
  8
0
100
AcDbLine
 10
-64.74023531577208
 20
75.16501424568837
 30
0.0
 11
-65.00788124477145
 21
75.2034959207546
 31
0.0
  0
LINE
  5
10C
330
1F
100
AcDbEntity
  8
0
100
AcDbLine
 10
-64.24459393797581
 20
85.6879055325012
 30
0.0
 11
-64.11616721084434
 21
85.9258588018297
 31
0.0
  0
LINE
  5
10D
330
1F
100
AcDbEntity
  8
0
100
AcDbLine
 10
-65.27552717377081
 20
73.34197759582082
 30
0.0
 11
-65.00788124477145
 21
73.3034959207546
 31
0.0
  0
LINE
  5
10E
330
1F
100
AcDbEntity
  8
0
100
AcDbLine
 10
-65.94821161455835
 20
74.11829682439497
 30
0.0
 11
-65.87203164035824
 21
73.85885165840281
 31
0.0
  0
LINE
  5
10F
330
1F
100
AcDbEntity
  8
0
100
AcDbLine
 10
-65.94821161455835
 20
74.38869501711423
 30
0.0
 11
-65.94821161455835
 21
74.11829682439497
 31
0.0
  0
LINE
  5
110
330
1F
100
AcDbEntity
  8
0
100
AcDbLine
 10
-65.87203164035824
 20
74.64814018310639
 30
0.0
 11
-65.94821161455835
 21
74.38869501711423
 31
0.0
  0
LINE
  5
111
330
1F
100
AcDbEntity
  8
0
100
AcDbLine
 10
-65.72584334040799
 20
74.87561361800263
 30
0.0
 11
-65.87203164035824
 21
74.64814018310639
 31
0.0
  0
LINE
  5
112
330
1F
100
AcDbEntity
  8
0
100
AcDbLine
 10
-65.27552717377081
 20
75.16501424568837
 30
0.0
 11
-65.52149002135428
 21
75.05268677694423
 31
0.0
  0
LINE
  5
113
330
1F
100
AcDbEntity
  8
0
100
AcDbLine
 10
-65.00788124477145
 20
75.2034959207546
 30
0.0
 11
-65.27552717377081
 21
75.16501424568837
 31
0.0
  0
LINE
  5
114
330
1F
100
AcDbEntity
  8
0
100
AcDbLine
 10
-64.49427246818864
 20
75.05268677694423
 30
0.0
 11
-64.74023531577208
 21
75.16501424568837
 31
0.0
  0
LINE
  5
115
330
1F
100
AcDbEntity
  8
0
100
AcDbLine
 10
-64.14373084918465
 20
74.64814018310639
 30
0.0
 11
-64.2899191491349
 21
74.87561361800263
 31
0.0
  0
LINE
  5
116
330
1F
100
AcDbEntity
  8
0
100
AcDbLine
 10
-64.06755087498458
 20
74.38869501711423
 30
0.0
 11
-64.14373084918465
 21
74.64814018310639
 31
0.0
  0
LINE
  5
117
330
1F
100
AcDbEntity
  8
0
100
AcDbLine
 10
-64.06755087498458
 20
74.11829682439497
 30
0.0
 11
-64.06755087498458
 21
74.38869501711423
 31
0.0
  0
LINE
  5
118
330
1F
100
AcDbEntity
  8
0
100
AcDbLine
 10
-64.14373084918465
 20
73.85885165840281
 30
0.0
 11
-64.06755087498458
 21
74.11829682439497
 31
0.0
  0
LINE
  5
119
330
1F
100
AcDbEntity
  8
0
100
AcDbLine
 10
-64.49427246818864
 20
73.45430506456499
 30
0.0
 11
-64.2899191491349
 21
73.6313782235066
 31
0.0
  0
LINE
  5
11A
330
1F
100
AcDbEntity
  8
0
100
AcDbLine
 10
-64.74023531577208
 20
73.34197759582082
 30
0.0
 11
-64.49427246818864
 21
73.45430506456499
 31
0.0
  0
LINE
  5
11B
330
1F
100
AcDbEntity
  8
0
100
AcDbLine
 10
-64.0805896636508
 20
86.4599670412114
 30
0.0
 11
-64.17632112487452
 21
86.71285173817388
 31
0.0
  0
LINE
  5
11C
330
1F
100
AcDbEntity
  8
0
100
AcDbLine
 10
-43.88057674592212
 20
74.62886582134787
 30
0.0
 11
-43.95098036808596
 21
74.36779396799705
 31
0.0
  0
LINE
  5
11D
330
1F
100
AcDbEntity
  8
0
100
AcDbLine
 10
-43.95098036808596
 20
74.36779396799705
 30
0.0
 11
-43.94497970810531
 21
74.09746236661526
 31
0.0
  0
LINE
  5
11E
330
1F
100
AcDbEntity
  8
0
100
AcDbLine
 10
-64.05998185151407
 20
86.19035528200055
 30
0.0
 11
-64.0805896636508
 21
86.4599670412114
 31
0.0
  0
LINE
  5
11F
330
1F
100
AcDbEntity
  8
0
100
AcDbLine
 10
-65.58090482628347
 20
87.01121880877578
 30
0.0
 11
-65.77116855156714
 21
86.81908630900799
 31
0.0
  0
LINE
  5
120
330
1F
100
AcDbEntity
  8
0
100
AcDbLine
 10
-43.91939956970524
 20
85.98584999175526
 30
0.0
 11
-43.80707210096109
 21
85.73988714417177
 31
0.0
  0
LINE
  5
121
330
1F
100
AcDbEntity
  8
0
100
AcDbLine
 10
-65.34421813832817
 20
87.1419651065076
 30
0.0
 11
-65.58090482628347
 21
87.01121880877578
 31
0.0
  0
LINE
  5
122
330
1F
100
AcDbEntity
  8
0
100
AcDbLine
 10
-43.25523290190728
 20
73.33626249478709
 30
0.0
 11
-42.98679890348692
 21
73.30372987857055
 31
0.0
  0
LINE
  5
123
330
1F
100
AcDbEntity
  8
0
100
AcDbLine
 10
-64.33942064153383
 20
86.92852215870326
 30
0.0
 11
-64.55667486077918
 21
87.08950596796969
 31
0.0
  0
LINE
  5
124
330
1F
100
AcDbEntity
  8
0
100
AcDbLine
 10
-65.93517282589217
 20
86.04702480029778
 30
0.0
 11
-65.83944136466845
 21
85.79414010333531
 31
0.0
  0
LINE
  5
125
330
1F
100
AcDbEntity
  8
0
100
AcDbLine
 10
-64.17632112487452
 20
86.71285173817388
 30
0.0
 11
-64.33942064153383
 21
86.92852215870326
 31
0.0
  0
LINE
  5
126
330
1F
100
AcDbEntity
  8
0
100
AcDbLine
 10
-64.67154435121476
 20
85.36502673500158
 30
0.0
 11
-64.43485766325946
 21
85.49577303273341
 31
0.0
  0
LINE
  5
127
330
1F
100
AcDbEntity
  8
0
100
AcDbLine
 10
-64.9354790540135
 20
85.30625892676974
 30
0.0
 11
-64.67154435121476
 21
85.36502673500158
 31
0.0
  0
LINE
  5
128
330
1F
100
AcDbEntity
  8
0
100
AcDbLine
 10
-65.45908762876378
 20
85.41748587353949
 30
0.0
 11
-65.20527935171503
 21
85.32423062635525
 31
0.0
  0
LINE
  5
129
330
1F
100
AcDbEntity
  8
0
100
AcDbLine
 10
-65.67634184800913
 20
85.57846968280587
 30
0.0
 11
-65.45908762876378
 21
85.41748587353949
 31
0.0
  0
LINE
  5
12A
330
1F
100
AcDbEntity
  8
0
100
AcDbLine
 10
-65.83944136466845
 20
85.79414010333531
 30
0.0
 11
-65.67634184800913
 21
85.57846968280587
 31
0.0
  0
LINE
  5
12B
330
1F
100
AcDbEntity
  8
0
100
AcDbLine
 10
-65.95578063802887
 20
86.31663655950864
 30
0.0
 11
-65.93517282589217
 21
86.04702480029778
 31
0.0
  0
LINE
  5
12C
330
1F
100
AcDbEntity
  8
0
100
AcDbLine
 10
-65.89959527869861
 20
86.58113303967946
 30
0.0
 11
-65.95578063802887
 21
86.31663655950864
 31
0.0
  0
LINE
  5
12D
330
1F
100
AcDbEntity
  8
0
100
AcDbLine
 10
-65.08028343552944
 20
87.20073291473943
 30
0.0
 11
-65.34421813832817
 21
87.1419651065076
 31
0.0
  0
LINE
  5
12E
330
1F
100
AcDbEntity
  8
0
100
AcDbLine
 10
-64.11616721084434
 20
85.9258588018297
 30
0.0
 11
-64.05998185151407
 21
86.19035528200055
 31
0.0
  0
LINE
  5
12F
330
1F
100
AcDbEntity
  8
0
100
AcDbLine
 10
-43.94497970810531
 20
74.09746236661526
 30
0.0
 11
-43.86306090376448
 21
73.83977167582259
 31
0.0
  0
LINE
  5
130
330
1F
100
AcDbEntity
  8
0
100
AcDbLine
 10
-43.86306090376448
 20
73.83977167582259
 30
0.0
 11
-43.71186052940132
 21
73.61559846284148
 31
0.0
  0
LINE
  5
131
330
1F
100
AcDbEntity
  8
0
100
AcDbLine
 10
-43.71186052940132
 20
73.61559846284148
 30
0.0
 11
-43.50362794012344
 21
73.44310390817823
 31
0.0
  0
LINE
  5
132
330
1F
100
AcDbEntity
  8
0
100
AcDbLine
 10
-43.50362794012344
 20
73.44310390817823
 30
0.0
 11
-43.25523290190728
 21
73.33626249478709
 31
0.0
  0
LINE
  5
133
330
1F
100
AcDbEntity
  8
0
100
AcDbLine
 10
-42.98679890348692
 20
73.30372987857055
 30
0.0
 11
-42.72007287097593
 21
73.34814165861567
 31
0.0
  0
LINE
  5
134
330
1F
100
AcDbEntity
  8
0
100
AcDbLine
 10
-42.05788124477146
 20
86.25349592075459
 30
0.0
 11
-42.09636291983769
 21
86.52114184975396
 31
0.0
  0
LINE
  5
135
330
1F
100
AcDbEntity
  8
0
100
AcDbLine
 10
-43.95788124477146
 20
86.25349592075459
 30
0.0
 11
-43.91939956970524
 21
85.98584999175526
 31
0.0
  0
LINE
  5
136
330
1F
100
AcDbEntity
  8
0
100
AcDbLine
 10
-43.91939956970525
 20
86.52114184975396
 30
0.0
 11
-43.95788124477146
 21
86.25349592075459
 31
0.0
  0
LINE
  5
137
330
1F
100
AcDbEntity
  8
0
100
AcDbLine
 10
-43.80707210096109
 20
86.76710469733742
 30
0.0
 11
-43.91939956970525
 21
86.52114184975396
 31
0.0
  0
LINE
  5
138
330
1F
100
AcDbEntity
  8
0
100
AcDbLine
 10
-43.62999894201949
 20
86.97145801639115
 30
0.0
 11
-43.80707210096109
 21
86.76710469733742
 31
0.0
  0
LINE
  5
139
330
1F
100
AcDbEntity
  8
0
100
AcDbLine
 10
-43.40252550712326
 20
87.11764631634139
 30
0.0
 11
-43.62999894201949
 21
86.97145801639115
 31
0.0
  0
LINE
  5
13A
330
1F
100
AcDbEntity
  8
0
100
AcDbLine
 10
-43.14308034113109
 20
87.1938262905415
 30
0.0
 11
-43.40252550712326
 21
87.11764631634139
 31
0.0
  0
LINE
  5
13B
330
1F
100
AcDbEntity
  8
0
100
AcDbLine
 10
-42.87268214841184
 20
87.1938262905415
 30
0.0
 11
-43.14308034113109
 21
87.1938262905415
 31
0.0
  0
LINE
  5
13C
330
1F
100
AcDbEntity
  8
0
100
AcDbLine
 10
-42.61323698241967
 20
87.11764631634139
 30
0.0
 11
-42.87268214841184
 21
87.1938262905415
 31
0.0
  0
LINE
  5
13D
330
1F
100
AcDbEntity
  8
0
100
AcDbLine
 10
-42.38576354752345
 20
86.97145801639115
 30
0.0
 11
-42.61323698241967
 21
87.11764631634139
 31
0.0
  0
LINE
  5
13E
330
1F
100
AcDbEntity
  8
0
100
AcDbLine
 10
-42.20869038858185
 20
86.76710469733742
 30
0.0
 11
-42.38576354752345
 21
86.97145801639115
 31
0.0
  0
LINE
  5
13F
330
1F
100
AcDbEntity
  8
0
100
AcDbLine
 10
-42.09636291983769
 20
86.52114184975396
 30
0.0
 11
-42.20869038858185
 21
86.76710469733742
 31
0.0
  0
LINE
  5
140
330
1F
100
AcDbEntity
  8
0
100
AcDbLine
 10
-42.09636291983769
 20
85.98584999175526
 30
0.0
 11
-42.05788124477146
 21
86.25349592075459
 31
0.0
  0
LINE
  5
141
330
1F
100
AcDbEntity
  8
0
100
AcDbLine
 10
-42.20869038858185
 20
85.73988714417177
 30
0.0
 11
-42.09636291983769
 21
85.98584999175526
 31
0.0
  0
LINE
  5
142
330
1F
100
AcDbEntity
  8
0
100
AcDbLine
 10
-42.38576354752345
 20
85.53553382511808
 30
0.0
 11
-42.20869038858185
 21
85.73988714417177
 31
0.0
  0
LINE
  5
143
330
1F
100
AcDbEntity
  8
0
100
AcDbLine
 10
-42.61323698241966
 20
85.38934552516783
 30
0.0
 11
-42.38576354752345
 21
85.53553382511808
 31
0.0
  0
LINE
  5
144
330
1F
100
AcDbEntity
  8
0
100
AcDbLine
 10
-42.87268214841183
 20
85.31316555096772
 30
0.0
 11
-42.61323698241966
 21
85.38934552516783
 31
0.0
  0
LINE
  5
145
330
1F
100
AcDbEntity
  8
0
100
AcDbLine
 10
-43.14308034113108
 20
85.31316555096772
 30
0.0
 11
-42.87268214841183
 21
85.31316555096772
 31
0.0
  0
LINE
  5
146
330
1F
100
AcDbEntity
  8
0
100
AcDbLine
 10
-43.40252550712325
 20
85.38934552516783
 30
0.0
 11
-43.14308034113108
 21
85.31316555096772
 31
0.0
  0
LINE
  5
147
330
1F
100
AcDbEntity
  8
0
100
AcDbLine
 10
-43.62999894201949
 20
85.53553382511808
 30
0.0
 11
-43.40252550712325
 21
85.38934552516783
 31
0.0
  0
LINE
  5
148
330
1F
100
AcDbEntity
  8
0
100
AcDbLine
 10
-43.80707210096109
 20
85.73988714417177
 30
0.0
 11
-43.62999894201949
 21
85.53553382511808
 31
0.0
  0
LINE
  5
149
330
1F
100
AcDbEntity
  8
0
100
AcDbLine
 10
-42.07078278143761
 20
74.40952947489399
 30
0.0
 11
-42.15270158577843
 21
74.66722016568664
 31
0.0
  0
LINE
  5
14A
330
1F
100
AcDbEntity
  8
0
100
AcDbLine
 10
-42.15270158577843
 20
74.66722016568664
 30
0.0
 11
-42.3039019601416
 21
74.89139337866774
 31
0.0
  0
LINE
  5
14B
330
1F
100
AcDbEntity
  8
0
100
AcDbLine
 10
-42.13518574362078
 20
73.87812602016137
 30
0.0
 11
-42.06478212145696
 21
74.13919787351223
 31
0.0
  0
LINE
  5
14C
330
1F
100
AcDbEntity
  8
0
100
AcDbLine
 10
-43.02896358605598
 20
75.20326196293868
 30
0.0
 11
-43.29568961856699
 21
75.15885018289359
 31
0.0
  0
LINE
  5
14D
330
1F
100
AcDbEntity
  8
0
100
AcDbLine
 10
-43.53909912829537
 20
75.0410919848791
 30
0.0
 11
-43.73947252437505
 21
74.8595274377634
 31
0.0
  0
LINE
  5
14E
330
1F
100
AcDbEntity
  8
0
100
AcDbLine
 10
-43.29568961856699
 20
75.15885018289359
 30
0.0
 11
-43.53909912829537
 21
75.0410919848791
 31
0.0
  0
LINE
  5
14F
330
1F
100
AcDbEntity
  8
0
100
AcDbLine
 10
-42.76052958763562
 20
75.17072934672218
 30
0.0
 11
-43.02896358605598
 21
75.20326196293868
 31
0.0
  0
LINE
  5
150
330
1F
100
AcDbEntity
  8
0
100
AcDbLine
 10
-42.51213454941946
 20
75.06388793333099
 30
0.0
 11
-42.76052958763562
 21
75.17072934672218
 31
0.0
  0
LINE
  5
151
330
1F
100
AcDbEntity
  8
0
100
AcDbLine
 10
-42.3039019601416
 20
74.89139337866774
 30
0.0
 11
-42.51213454941946
 21
75.06388793333099
 31
0.0
  0
LINE
  5
152
330
1F
100
AcDbEntity
  8
0
100
AcDbLine
 10
-42.06478212145696
 20
74.13919787351223
 30
0.0
 11
-42.07078278143761
 21
74.40952947489399
 31
0.0
  0
LINE
  5
153
330
1F
100
AcDbEntity
  8
0
100
AcDbLine
 10
-47.7361947212361
 20
-68.81766481577725
 30
0.0
 11
-46.49604981477076
 21
-67.73287842678623
 31
0.0
  0
LINE
  5
154
330
1F
100
AcDbEntity
  8
0
100
AcDbLine
 10
-49.13076936444508
 20
-69.69509427920471
 30
0.0
 11
-47.7361947212361
 21
-68.81766481577725
 31
0.0
  0
LINE
  5
155
330
1F
100
AcDbEntity
  8
0
100
AcDbLine
 10
-50.64543468835404
 20
-70.34356159165762
 30
0.0
 11
-49.13076936444508
 21
-69.69509427920471
 31
0.0
  0
LINE
  5
156
330
1F
100
AcDbEntity
  8
0
100
AcDbLine
 10
-52.24289460580232
 20
-70.7470993357637
 30
0.0
 11
-50.64543468835404
 21
-70.34356159165762
 31
0.0
  0
LINE
  5
157
330
1F
100
AcDbEntity
  8
0
100
AcDbLine
 10
-53.88381435195684
 20
-70.89577107299823
 30
0.0
 11
-52.24289460580232
 21
-70.7470993357637
 31
0.0
  0
LINE
  5
158
330
1F
100
AcDbEntity
  8
0
100
AcDbLine
 10
-55.52778903676689
 20
-70.78591601177713
 30
0.0
 11
-53.88381435195684
 21
-70.89577107299823
 31
0.0
  0
LINE
  5
159
330
1F
100
AcDbEntity
  8
0
100
AcDbLine
 10
-57.13433854745321
 20
-70.42023914829569
 30
0.0
 11
-55.52778903676689
 21
-70.78591601177713
 31
0.0
  0
LINE
  5
15A
330
1F
100
AcDbEntity
  8
0
100
AcDbLine
 10
-58.66390430323062
 20
-69.80774466054478
 30
0.0
 11
-57.13433854745321
 21
-70.42023914829569
 31
0.0
  0
LINE
  5
15B
330
1F
100
AcDbEntity
  8
0
100
AcDbLine
 10
-60.07882331885416
 20
-68.96351419556555
 30
0.0
 11
-58.66390430323062
 21
-69.80774466054478
 31
0.0
  0
LINE
  5
15C
330
1F
100
AcDbEntity
  8
0
100
AcDbLine
 10
-61.34425559231218
 20
-67.90833550924603
 30
0.0
 11
-60.07882331885416
 21
-68.96351419556555
 31
0.0
  0
LINE
  5
15D
330
1F
100
AcDbEntity
  8
0
100
AcDbLine
 10
-62.42904198130323
 20
-66.6681906027807
 30
0.0
 11
-61.34425559231218
 21
-67.90833550924603
 31
0.0
  0
LINE
  5
15E
330
1F
100
AcDbEntity
  8
0
100
AcDbLine
 10
-63.30647144473071
 20
-65.27361595957166
 30
0.0
 11
-62.42904198130323
 21
-66.6681906027807
 31
0.0
  0
LINE
  5
15F
330
1F
100
AcDbEntity
  8
0
100
AcDbLine
 10
-63.95493875718363
 20
-63.75895063566275
 30
0.0
 11
-63.30647144473071
 21
-65.27361595957166
 31
0.0
  0
LINE
  5
160
330
1F
100
AcDbEntity
  8
0
100
AcDbLine
 10
-64.35847650128973
 20
-62.1614907182144
 30
0.0
 11
-63.95493875718363
 21
-63.75895063566275
 31
0.0
  0
LINE
  5
161
330
1F
100
AcDbEntity
  8
0
100
AcDbLine
 10
-64.50714823852417
 20
-60.52057097205987
 30
0.0
 11
-64.35847650128973
 21
-62.1614907182144
 31
0.0
  0
LINE
  5
162
330
1F
100
AcDbEntity
  8
0
100
AcDbLine
 10
-43.6184693122397
 20
-61.91641187124089
 30
0.0
 11
-43.50861425101854
 21
-60.27243718643092
 31
0.0
  0
LINE
  5
163
330
1F
100
AcDbEntity
  8
0
100
AcDbLine
 10
-43.98414617572112
 20
-63.52296138192726
 30
0.0
 11
-43.6184693122397
 21
-61.91641187124089
 31
0.0
  0
LINE
  5
164
330
1F
100
AcDbEntity
  8
0
100
AcDbLine
 10
-44.59664066347202
 20
-65.05252713770464
 30
0.0
 11
-43.98414617572112
 21
-63.52296138192726
 31
0.0
  0
LINE
  5
165
330
1F
100
AcDbEntity
  8
0
100
AcDbLine
 10
-45.44087112845123
 20
-66.46744615332815
 30
0.0
 11
-44.59664066347202
 21
-65.05252713770464
 31
0.0
  0
LINE
  5
166
330
1F
100
AcDbEntity
  8
0
100
AcDbLine
 10
-46.49604981477076
 20
-67.73287842678623
 30
0.0
 11
-45.44087112845123
 21
-66.46744615332815
 31
0.0
  0
LINE
  5
167
330
1F
100
AcDbEntity
  8
0
100
AcDbLine
 10
-78.20788124477146
 20
68.7034959207546
 30
0.0
 11
-78.20788124477149
 21
91.90349592075458
 31
0.0
  0
LINE
  5
168
330
1F
100
AcDbEntity
  8
0
100
AcDbLine
 10
-29.80788124477148
 20
91.90349592075462
 30
0.0
 11
-29.80788124477145
 21
68.70349592075465
 31
0.0
  0
LINE
  5
169
330
1F
100
AcDbEntity
  8
0
100
AcDbLine
 10
-78.20788124477149
 20
91.90349592075458
 30
0.0
 11
-29.80788124477148
 21
91.90349592075462
 31
0.0
  0
LINE
  5
16A
330
1F
100
AcDbEntity
  8
0
100
AcDbLine
 10
-64.49217545186558
 20
-60.29650407924537
 30
0.0
 11
-64.50714823852417
 21
-60.52057097205987
 31
0.0
  0
LINE
  5
16B
330
1F
100
AcDbEntity
  8
0
100
AcDbLine
 10
-64.49217545186558
 20
-60.29650407924537
 30
0.0
 11
-78.20788124477146
 21
68.7034959207546
 31
0.0
  0
LINE
  5
16C
330
1F
100
AcDbEntity
  8
0
100
AcDbLine
 10
-43.50861425101854
 20
-60.27243718643092
 30
0.0
 11
-29.80788124477145
 21
68.70349592075465
 31
0.0
  0
LINE
  5
16D
330
1F
100
AcDbEntity
  8
0
100
AcDbLine
 10
-39.08609387837018
 20
-52.18325142193258
 30
0.0
 11
-39.18607599050794
 21
-53.0599204725907
 31
0.0
  0
LINE
  5
16E
330
1F
100
AcDbEntity
  8
0
100
AcDbLine
 10
-38.64516914431558
 20
-54.72080182980042
 30
0.0
 11
-38.04810124176704
 21
-55.37045940643264
 31
0.0
  0
LINE
  5
16F
330
1F
100
AcDbEntity
  8
0
100
AcDbLine
 10
-38.04810124176704
 20
-55.37045940643264
 30
0.0
 11
-37.29218909436488
 21
-55.82558781967372
 31
0.0
  0
LINE
  5
170
330
1F
100
AcDbEntity
  8
0
100
AcDbLine
 10
-34.71771715858597
 20
-55.75028213955675
 30
0.0
 11
-33.9897005373656
 21
-55.25174744030675
 31
0.0
  0
LINE
  5
171
330
1F
100
AcDbEntity
  8
0
100
AcDbLine
 10
-37.29218909436488
 20
-55.82558781967372
 30
0.0
 11
-36.43867220870926
 21
-56.04931527223584
 31
0.0
  0
LINE
  5
172
330
1F
100
AcDbEntity
  8
0
100
AcDbLine
 10
-37.45708553267936
 20
-50.18828061932895
 30
0.0
 11
-38.18510215389974
 21
-50.68681531857894
 31
0.0
  0
LINE
  5
173
330
1F
100
AcDbEntity
  8
0
100
AcDbLine
 10
-38.18510215389974
 20
-50.68681531857894
 30
0.0
 11
-38.74317553114133
 21
-51.37026184373165
 31
0.0
  0
LINE
  5
174
330
1F
100
AcDbEntity
  8
0
100
AcDbLine
 10
-35.55669744681529
 20
-56.02351669647067
 30
0.0
 11
-34.71771715858597
 21
-55.75028213955675
 31
0.0
  0
LINE
  5
175
330
1F
100
AcDbEntity
  8
0
100
AcDbLine
 10
-34.8826135969004
 20
-50.11297493921202
 30
0.0
 11
-35.73613048255611
 21
-49.88924748664981
 31
0.0
  0
LINE
  5
176
330
1F
100
AcDbEntity
  8
0
100
AcDbLine
 10
-33.9897005373656
 20
-55.25174744030675
 30
0.0
 11
-33.43162716012397
 21
-54.568300915154
 31
0.0
  0
LINE
  5
177
330
1F
100
AcDbEntity
  8
0
100
AcDbLine
 10
-33.08870881289506
 20
-53.75531133695316
 30
0.0
 11
-32.98872670075729
 21
-52.87864228629504
 31
0.0
  0
LINE
  5
178
330
1F
100
AcDbEntity
  8
0
100
AcDbLine
 10
-34.12670144949828
 20
-50.56810335245314
 30
0.0
 11
-34.8826135969004
 21
-50.11297493921202
 31
0.0
  0
LINE
  5
179
330
1F
100
AcDbEntity
  8
0
100
AcDbLine
 10
-36.61810524445003
 20
-49.91504606241493
 30
0.0
 11
-37.45708553267936
 21
-50.18828061932895
 31
0.0
  0
LINE
  5
17A
330
1F
100
AcDbEntity
  8
0
100
AcDbLine
 10
-39.18607599050794
 20
-53.0599204725907
 30
0.0
 11
-39.03502191144553
 21
-53.9292464829734
 31
0.0
  0
LINE
  5
17B
330
1F
100
AcDbEntity
  8
0
100
AcDbLine
 10
-32.98872670075729
 20
-52.87864228629504
 30
0.0
 11
-33.13978077981966
 21
-52.00931627591225
 31
0.0
  0
LINE
  5
17C
330
1F
100
AcDbEntity
  8
0
100
AcDbLine
 10
-33.43162716012397
 20
-54.568300915154
 30
0.0
 11
-33.08870881289506
 21
-53.75531133695316
 31
0.0
  0
LINE
  5
17D
330
1F
100
AcDbEntity
  8
0
100
AcDbLine
 10
-38.74317553114133
 20
-51.37026184373165
 30
0.0
 11
-39.08609387837018
 21
-52.18325142193258
 31
0.0
  0
LINE
  5
17E
330
1F
100
AcDbEntity
  8
0
100
AcDbLine
 10
-39.03502191144553
 20
-53.9292464829734
 30
0.0
 11
-38.64516914431558
 21
-54.72080182980042
 31
0.0
  0
LINE
  5
17F
330
1F
100
AcDbEntity
  8
0
100
AcDbLine
 10
-33.13978077981966
 20
-52.00931627591225
 30
0.0
 11
-33.52963354694976
 21
-51.21776092908527
 31
0.0
  0
LINE
  5
180
330
1F
100
AcDbEntity
  8
0
100
AcDbLine
 10
-33.52963354694976
 20
-51.21776092908527
 30
0.0
 11
-34.12670144949828
 21
-50.56810335245314
 31
0.0
  0
LINE
  5
181
330
1F
100
AcDbEntity
  8
0
100
AcDbLine
 10
-35.73613048255611
 20
-49.88924748664981
 30
0.0
 11
-36.61810524445003
 21
-49.91504606241493
 31
0.0
  0
LINE
  5
182
330
1F
100
AcDbEntity
  8
0
100
AcDbLine
 10
-36.43867220870926
 20
-56.04931527223584
 30
0.0
 11
-35.55669744681529
 21
-56.02351669647067
 31
0.0
  0
ENDSEC
  0
SECTION
  2
OBJECTS
  0
DICTIONARY
  5
C
330
0
100
AcDbDictionary
  3
ACAD_GROUP
350
D
  3
ACAD_LAYOUT
350
1A
  3
ACAD_MATERIAL
350
43
  3
ACAD_MLEADERSTYLE
350
6B
  3
ACAD_MLINESTYLE
350
17
  3
ACAD_PLOTSETTINGS
350
19
  3
ACAD_SCALELIST
350
47
  3
ACAD_VISUALSTYLE
350
2A
  3
ACDBHEADERROUNDTRIPXREC
350
183
  3
ACDBVARIABLEDICTIONARY
350
1A4
  0
DICTIONARY
  5
1AB
330
8
100
AcDbDictionary
280
     1
  3
ACAD_XREC_ROUNDTRIP
360
1AC
  0
DICTIONARY
  5
D
102
{ACAD_REACTORS
330
C
102
}
330
C
100
AcDbDictionary
  0
DICTIONARY
  5
1A
102
{ACAD_REACTORS
330
C
102
}
330
C
100
AcDbDictionary
  0
DICTIONARY
  5
43
102
{ACAD_REACTORS
330
C
102
}
330
C
100
AcDbDictionary
  3
BYBLOCK
350
45
  3
BYLAYER
350
44
  3
GLOBAL
350
46
  0
DICTIONARY
  5
6B
102
{ACAD_REACTORS
330
C
102
}
330
C
100
AcDbDictionary
  3
STANDARD
350
6C
  0
DICTIONARY
  5
17
102
{ACAD_REACTORS
330
C
102
}
330
C
100
AcDbDictionary
  3
STANDARD
350
18
  0
DICTIONARY
  5
19
102
{ACAD_REACTORS
330
C
102
}
330
C
100
AcDbDictionary
  0
DICTIONARY
  5
47
102
{ACAD_REACTORS
330
C
102
}
330
C
100
AcDbDictionary
  3
A0
350
48
  3
A1
350
49
  3
A2
350
4A
  3
A3
350
4B
  3
A4
350
4C
  3
A5
350
4D
  3
A6
350
4E
  3
A7
350
4F
  3
A8
350
50
  3
A9
350
51
  3
B0
350
52
  3
B1
350
53
  3
B2
350
54
  3
B3
350
55
  3
B4
350
56
  3
B5
350
57
  3
B6
350
58
  3
B7
350
59
  3
B8
350
5A
  3
B9
350
5B
  3
C0
350
5C
  3
C1
350
5D
  3
C2
350
5E
  3
C3
350
5F
  3
C4
350
60
  3
C5
350
61
  3
C6
350
62
  3
C7
350
63
  3
C8
350
64
  3
C9
350
65
  3
D0
350
66
  3
D1
350
67
  3
D2
350
68
  0
DICTIONARY
  5
2A
102
{ACAD_REACTORS
330
C
102
}
330
C
100
AcDbDictionary
  3
2DWIREFRAME
350
2F
  3
BASIC
350
32
  3
BRIGHTEN
350
36
  3
COLORCHANGE
350
3A
  3
CONCEPTUAL
350
34
  3
DIM
350
35
  3
EDGECOLOROFF
350
3D
  3
FACEPATTERN
350
39
  3
FLAT
350
2B
  3
FLATWITHEDGES
350
2C
  3
GOURAUD
350
2D
  3
GOURAUDWITHEDGES
350
2E
  3
HIDDEN
350
31
  3
JITTEROFF
350
3B
  3
LINEPATTERN
350
38
  3
OVERHANGOFF
350
3C
  3
REALISTIC
350
33
  3
SHADED
350
42
  3
SHADED_WITH_EDGES
350
41
  3
SHADES_OF_GRAY
350
3E
  3
SKETCHY
350
3F
  3
THICKEN
350
37
  3
WIREFRAME
350
30
  3
X-RAY
350
40
  0
DICTIONARY
  5
183
102
{ACAD_REACTORS
330
C
102
}
330
C
100
AcDbDictionary
  3
CEPSNID
350
18D
  3
CEPSNTYPE
350
18C
  3
DIMSTYLEDATA
350
1A3
  3
FINGERPRINTGUID
350
18E
  3
HYPERLINKBASE
350
186
  3
INSUNITS
350
18B
  3
LAYOUTDICT
350
188
  3
LWETCUNION
350
18A
  3
PLOTSETDICT
350
189
  3
PSVPSCALE
350
190
  3
PUCSBASE
350
193
  3
PUCSORGBACK
350
199
  3
PUCSORGBOTTOM
350
195
  3
PUCSORGFRONT
350
198
  3
PUCSORGLEFT
350
196
  3
PUCSORGRIGHT
350
197
  3
PUCSORGTOP
350
194
  3
PUCSORTHOREF
350
191
  3
PUCSORTHOVIEW
350
192
  3
STYLESHEET
350
187
  3
TSTACKALIGN
350
184
  3
TSTACKSIZE
350
185
  3
UCSBASE
350
19C
  3
UCSORGBACK
350
1A2
  3
UCSORGBOTTOM
350
19E
  3
UCSORGFRONT
350
1A1
  3
UCSORGLEFT
350
19F
  3
UCSORGRIGHT
350
1A0
  3
UCSORGTOP
350
19D
  3
UCSORTHOREF
350
19A
  3
UCSORTHOVIEW
350
19B
  3
VERSIONGUID
350
18F
  0
DICTIONARY
  5
1A4
102
{ACAD_REACTORS
330
C
102
}
330
C
100
AcDbDictionary
  3
CANNOSCALE
350
1AD
  3
CMLEADERSTYLE
350
1A6
  3
CTABLESTYLE
350
1A5
  3
DIMASSOC
350
1A9
  3
HIDETEXT
350
1AA
  3
MSLTSCALE
350
1AE
  0
XRECORD
  5
1AC
102
{ACAD_REACTORS
330
1AB
102
}
330
1AB
100
AcDbXrecord
102
VTR_0.000_0.000_1.000_1.000_VISUALSTYLE
340
2F
102
VTR_0.000_0.000_1.000_1.000_GRIDDISPLAY
 70
     3
102
VTR_0.000_0.000_1.000_1.000_GRIDMAJOR
 70
     5
102
VTR_0.000_0.000_1.000_1.000_DEFAULTLIGHTING
280
     1
102
VTR_0.000_0.000_1.000_1.000_DEFAULTLIGHTINGTYPE
 70
     1
102
VTR_0.000_0.000_1.000_1.000_BRIGHTNESS
141
0.0
102
VTR_0.000_0.000_1.000_1.000_CONTRAST
142
0.0
  0
MATERIAL
  5
45
102
{ACAD_REACTORS
330
43
102
}
102
{ACAD_XDICTIONARY
360
1B1
102
}
330
43
100
AcDbMaterial
  1
BYBLOCK
  0
MATERIAL
  5
44
102
{ACAD_REACTORS
330
43
102
}
102
{ACAD_XDICTIONARY
360
1AF
102
}
330
43
100
AcDbMaterial
  1
BYLAYER
  0
MATERIAL
  5
46
102
{ACAD_REACTORS
330
43
102
}
102
{ACAD_XDICTIONARY
360
1B3
102
}
330
43
100
AcDbMaterial
  1
GLOBAL
  0
ACAD_PROXY_OBJECT
  5
6C
102
{ACAD_REACTORS
330
6B
102
}
330
6B
100
AcDbProxyObject
 90
      499
 91
      505
 93
      610
310
40901902A4063FBFFFFFE056BD1B81E855B9FC0AD7A3703D0AD73F4214DD185B99185C9900AD7A3703D0AC73F90141901A02B5E8DC0F42B1CFC02B5E8DC0F42B1CFE5764000000000000300FC0
340
14
340
0
340
11
340
0
 94
        0
1001
ACAD_MLEADERVER
1070
     2
  0
MLINESTYLE
  5
18
102
{ACAD_REACTORS
330
17
102
}
330
17
100
AcDbMlineStyle
  2
Standard
 70
     0
  3

 62
   256
 51
90.0
 52
90.0
 71
     2
 49
0.5
 62
   256
  6
BYLAYER
 49
-0.5
 62
   256
  6
BYLAYER
  0
ACAD_PROXY_OBJECT
  5
48
102
{ACAD_REACTORS
330
47
102
}
330
47
100
AcDbProxyObject
 90
      499
 91
      503
 93
       41
310
903313A31580
  0
ACAD_PROXY_OBJECT
  5
49
102
{ACAD_REACTORS
330
47
102
}
330
47
100
AcDbProxyObject
 90
      499
 91
      503
 93
      105
310
903313A324000000000000004000
  0
ACAD_PROXY_OBJECT
  5
4A
102
{ACAD_REACTORS
330
47
102
}
330
47
100
AcDbProxyObject
 90
      499
 91
      503
 93
      105
310
903313A344000000000000104000
  0
ACAD_PROXY_OBJECT
  5
4B
102
{ACAD_REACTORS
330
47
102
}
330
47
100
AcDbProxyObject
 90
      499
 91
      503
 93
      105
310
903313A354000000000000144000
  0
ACAD_PROXY_OBJECT
  5
4C
102
{ACAD_REACTORS
330
47
102
}
330
47
100
AcDbProxyObject
 90
      499
 91
      503
 93
      105
310
903313A384000000000000204000
  0
ACAD_PROXY_OBJECT
  5
4D
102
{ACAD_REACTORS
330
47
102
}
330
47
100
AcDbProxyObject
 90
      499
 91
      503
 93
      113
310
904313A31304000000000000244000
  0
ACAD_PROXY_OBJECT
  5
4E
102
{ACAD_REACTORS
330
47
102
}
330
47
100
AcDbProxyObject
 90
      499
 91
      503
 93
      113
310
904313A31364000000000000304000
  0
ACAD_PROXY_OBJECT
  5
4F
102
{ACAD_REACTORS
330
47
102
}
330
47
100
AcDbProxyObject
 90
      499
 91
      503
 93
      113
310
904313A32304000000000000344000
  0
ACAD_PROXY_OBJECT
  5
50
102
{ACAD_REACTORS
330
47
102
}
330
47
100
AcDbProxyObject
 90
      499
 91
      503
 93
      113
310
904313A333040000000000003E4000
  0
ACAD_PROXY_OBJECT
  5
51
102
{ACAD_REACTORS
330
47
102
}
330
47
100
AcDbProxyObject
 90
      499
 91
      503
 93
      113
310
904313A34304000000000000444000
  0
ACAD_PROXY_OBJECT
  5
52
102
{ACAD_REACTORS
330
47
102
}
330
47
100
AcDbProxyObject
 90
      499
 91
      503
 93
      113
310
904313A35304000000000000494000
  0
ACAD_PROXY_OBJECT
  5
53
102
{ACAD_REACTORS
330
47
102
}
330
47
100
AcDbProxyObject
 90
      499
 91
      503
 93
      121
310
905313A3130304000000000000594000
  0
ACAD_PROXY_OBJECT
  5
54
102
{ACAD_REACTORS
330
47
102
}
330
47
100
AcDbProxyObject
 90
      499
 91
      503
 93
      105
310
903323A310000000000000010100
  0
ACAD_PROXY_OBJECT
  5
55
102
{ACAD_REACTORS
330
47
102
}
330
47
100
AcDbProxyObject
 90
      499
 91
      503
 93
      105
310
903343A310000000000000410100
  0
ACAD_PROXY_OBJECT
  5
56
102
{ACAD_REACTORS
330
47
102
}
330
47
100
AcDbProxyObject
 90
      499
 91
      503
 93
      105
310
903383A310000000000000810100
  0
ACAD_PROXY_OBJECT
  5
57
102
{ACAD_REACTORS
330
47
102
}
330
47
100
AcDbProxyObject
 90
      499
 91
      503
 93
      113
310
90431303A310000000000000910100
  0
ACAD_PROXY_OBJECT
  5
58
102
{ACAD_REACTORS
330
47
102
}
330
47
100
AcDbProxyObject
 90
      499
 91
      503
 93
      121
310
9053130303A310000000000001650100
  0
ACAD_PROXY_OBJECT
  5
59
102
{ACAD_REACTORS
330
47
102
}
330
47
100
AcDbProxyObject
 90
      499
 91
      503
 93
      257
310
90E312F31323822203D2031272D3022000000000000200FC000000000000284000
  0
ACAD_PROXY_OBJECT
  5
5A
102
{ACAD_REACTORS
330
47
102
}
330
47
100
AcDbProxyObject
 90
      499
 91
      503
 93
      249
310
90D312F363422203D2031272D3022000000000000240FC000000000000284000
  0
ACAD_PROXY_OBJECT
  5
5B
102
{ACAD_REACTORS
330
47
102
}
330
47
100
AcDbProxyObject
 90
      499
 91
      503
 93
      249
310
90D312F333222203D2031272D3022000000000000280FC000000000000284000
  0
ACAD_PROXY_OBJECT
  5
5C
102
{ACAD_REACTORS
330
47
102
}
330
47
100
AcDbProxyObject
 90
      499
 91
      503
 93
      249
310
90D312F313622203D2031272D30220000000000002C0FC000000000000284000
  0
ACAD_PROXY_OBJECT
  5
5D
102
{ACAD_REACTORS
330
47
102
}
330
47
100
AcDbProxyObject
 90
      499
 91
      503
 93
      249
310
90D332F333222203D2031272D30220000000000002E0FC000000000000284000
  0
ACAD_PROXY_OBJECT
  5
5E
102
{ACAD_REACTORS
330
47
102
}
330
47
100
AcDbProxyObject
 90
      499
 91
      503
 93
      241
310
90C312F3822203D2031272D3022000000000000300FC000000000000284000
  0
ACAD_PROXY_OBJECT
  5
5F
102
{ACAD_REACTORS
330
47
102
}
330
47
100
AcDbProxyObject
 90
      499
 91
      503
 93
      249
310
90D332F313622203D2031272D3022000000000000320FC000000000000284000
  0
ACAD_PROXY_OBJECT
  5
60
102
{ACAD_REACTORS
330
47
102
}
330
47
100
AcDbProxyObject
 90
      499
 91
      503
 93
      241
310
90C312F3422203D2031272D3022000000000000340FC000000000000284000
  0
ACAD_PROXY_OBJECT
  5
61
102
{ACAD_REACTORS
330
47
102
}
330
47
100
AcDbProxyObject
 90
      499
 91
      503
 93
      241
310
90C332F3822203D2031272D3022000000000000360FC000000000000284000
  0
ACAD_PROXY_OBJECT
  5
62
102
{ACAD_REACTORS
330
47
102
}
330
47
100
AcDbProxyObject
 90
      499
 91
      503
 93
      241
310
90C312F3222203D2031272D3022000000000000380FC000000000000284000
  0
ACAD_PROXY_OBJECT
  5
63
102
{ACAD_REACTORS
330
47
102
}
330
47
100
AcDbProxyObject
 90
      499
 91
      503
 93
      241
310
90C332F3422203D2031272D30220000000000003A0FC000000000000284000
  0
ACAD_PROXY_OBJECT
  5
64
102
{ACAD_REACTORS
330
47
102
}
330
47
100
AcDbProxyObject
 90
      499
 91
      503
 93
      161
310
90A3122203D2031272D30224000000000000284000
  0
ACAD_PROXY_OBJECT
  5
65
102
{ACAD_REACTORS
330
47
102
}
330
47
100
AcDbProxyObject
 90
      499
 91
      503
 93
      257
310
90E312D312F3222203D2031272D30220000000000003E0FC000000000000284000
  0
ACAD_PROXY_OBJECT
  5
66
102
{ACAD_REACTORS
330
47
102
}
330
47
100
AcDbProxyObject
 90
      499
 91
      503
 93
      225
310
90A3322203D2031272D302200000000000002100000000000000284000
  0
ACAD_PROXY_OBJECT
  5
67
102
{ACAD_REACTORS
330
47
102
}
330
47
100
AcDbProxyObject
 90
      499
 91
      503
 93
      225
310
90A3622203D2031272D302200000000000006100000000000000284000
  0
ACAD_PROXY_OBJECT
  5
68
102
{ACAD_REACTORS
330
47
102
}
330
47
100
AcDbProxyObject
 90
      499
 91
      503
 93
      249
310
90D31272D3022203D2031272D30220000000000000A100000000000000284000
  0
ACAD_PROXY_OBJECT
  5
2F
102
{ACAD_REACTORS
330
2A
102
}
330
2A
100
AcDbProxyObject
 90
      499
 91
      501
 93
      436
310
42CC9915DA5C99599C985B595049028333333333333E33F0000000000000F90107901411070040501600405405064090741402480A0340
1001
ACAD
1000
AcDbSavedByObjectVersion
1070
     0
  0
ACAD_PROXY_OBJECT
  5
32
102
{ACAD_REACTORS
330
2A
102
}
330
2A
100
AcDbProxyObject
 90
      499
 91
      501
 93
      388
310
4150985CDA58D07406404333333333333E33F0000000000000F90107A41107004050150841D405064090741402480A0350
1001
ACAD
1000
AcDbSavedByObjectVersion
1070
     0
  0
ACAD_PROXY_OBJECT
  5
36
102
{ACAD_REACTORS
330
2A
102
}
330
2A
100
AcDbProxyObject
 90
      499
 91
      501
 93
      428
310
42109C9A59DA1D195B90C409028333333333333E33F0000000000000F9010790141107004050150841D405064090741402480A029950
1001
ACAD
1000
AcDbSavedByObjectVersion
1070
     0
  0
ACAD_PROXY_OBJECT
  5
3A
102
{ACAD_REACTORS
330
2A
102
}
330
2A
100
AcDbProxyObject
 90
      499
 91
      501
 93
      452
310
42D0DBDB1BDC90DA185B99D95104090240C333333333333E33F0000000000000F90108901411070040501508421405064090741402480A0350
1001
ACAD
1000
AcDbSavedByObjectVersion
1070
     0
  0
ACAD_PROXY_OBJECT
  5
34
102
{ACAD_REACTORS
330
2A
102
}
330
2A
100
AcDbProxyObject
 90
      499
 91
      501
 93
      500
310
4290DBDB98D95C1D1D585B10940D028333333333333E33F0000000000000F90107902409070040501000000000018199010841D405064090740C02480A0340
1001
ACAD
1000
AcDbSavedByObjectVersion
1070
     0
  0
ACAD_PROXY_OBJECT
  5
35
102
{ACAD_REACTORS
330
2A
102
}
330
2A
100
AcDbProxyObject
 90
      499
 91
      501
 93
      412
310
40D11A5B50B409028333333333333E33F0000000000000F9010790141107004050150841D405064090741402480A02677FFFFFD0
1001
ACAD
1000
AcDbSavedByObjectVersion
1070
     0
  0
ACAD_PROXY_OBJECT
  5
3D
102
{ACAD_REACTORS
330
2A
102
}
330
2A
100
AcDbProxyObject
 90
      499
 91
      501
 93
      452
310
43115919D950DBDB1BDC93D999916409028333333333333E33F0000000000000F9010790141107004050150841D405064090741402480A0350
1001
ACAD
1000
AcDbSavedByObjectVersion
1070
     0
  0
ACAD_PROXY_OBJECT
  5
39
102
{ACAD_REACTORS
330
2A
102
}
330
2A
100
AcDbProxyObject
 90
      499
 91
      501
 93
      444
310
42D19858D95C185D1D195C9B90F409028333333333333E33F0000000000000F9010790141107004050150841D405064090741402480A0350
1001
ACAD
1000
AcDbSavedByObjectVersion
1070
     0
  0
ACAD_PROXY_OBJECT
  5
2B
102
{ACAD_REACTORS
330
2A
102
}
330
2A
100
AcDbProxyObject
 90
      499
 91
      501
 93
      380
310
41119B185D240901404333333333333E33F0000000000000F9010740A907004050150841D405064090741402480A1B50
1001
ACAD
1000
AcDbSavedByObjectVersion
1070
     0
  0
ACAD_PROXY_OBJECT
  5
2C
102
{ACAD_REACTORS
330
2A
102
}
330
2A
100
AcDbProxyObject
 90
      499
 91
      501
 93
      468
310
43519B185D15DA5D1A115919D95CD0140901404333333333333E33F0000000000000F90107409019070040501600405405064090741402480A1B50
1001
ACAD
1000
AcDbSavedByObjectVersion
1070
     0
  0
ACAD_PROXY_OBJECT
  5
2D
102
{ACAD_REACTORS
330
2A
102
}
330
2A
100
AcDbProxyObject
 90
      499
 91
      501
 93
      404
310
41D1DBDD5C985D5910240902404333333333333E33F0000000000000F9010740A9070040501641D405064090741402480A1B50
1001
ACAD
1000
AcDbSavedByObjectVersion
1070
     0
  0
ACAD_PROXY_OBJECT
  5
2E
102
{ACAD_REACTORS
330
2A
102
}
330
2A
100
AcDbProxyObject
 90
      499
 91
      501
 93
      492
310
4411DBDD5C985D5915DA5D1A115919D95CD0340902404333333333333E33F0000000000000F90107409019070040501600405405064090741402480A1B50
1001
ACAD
1000
AcDbSavedByObjectVersion
1070
     0
  0
ACAD_PROXY_OBJECT
  5
31
102
{ACAD_REACTORS
330
2A
102
}
330
2A
100
AcDbProxyObject
 90
      499
 91
      501
 93
      476
310
41921A5919195B90640502408333333333333E33F0000000000000F901079024090700405020000000000001110200405405064090740C02480A0340
1001
ACAD
1000
AcDbSavedByObjectVersion
1070
     0
  0
ACAD_PROXY_OBJECT
  5
3B
102
{ACAD_REACTORS
330
2A
102
}
330
2A
100
AcDbProxyObject
 90
      499
 91
      501
 93
      428
310
42529A5D1D195C93D999914409028333333333333E33F0000000000000F9010790141107004050150A41D405064090741402480A0350
1001
ACAD
1000
AcDbSavedByObjectVersion
1070
     0
  0
ACAD_PROXY_OBJECT
  5
38
102
{ACAD_REACTORS
330
2A
102
}
330
2A
100
AcDbProxyObject
 90
      499
 91
      501
 93
      444
310
42D31A5B995C185D1D195C9B90E409028333333333333E33F0000000000000F9010790141107004050750841D405064090741402483A0350
1001
ACAD
1000
AcDbSavedByObjectVersion
1070
     0
  0
ACAD_PROXY_OBJECT
  5
3C
102
{ACAD_REACTORS
330
2A
102
}
330
2A
100
AcDbProxyObject
 90
      499
 91
      501
 93
      444
310
42D3DD995C9A185B99D3D999915409028333333333333E33F0000000000000F9010790141107004050150941D405064090741402480A0350
1001
ACAD
1000
AcDbSavedByObjectVersion
1070
     0
  0
ACAD_PROXY_OBJECT
  5
33
102
{ACAD_REACTORS
330
2A
102
}
330
2A
100
AcDbProxyObject
 90
      499
 91
      501
 93
      428
310
425499585B1A5CDD1A58D08409038333333333333E33F0000000000000F9010740A907004050150800405405064090740C02480A1B40
1001
ACAD
1000
AcDbSavedByObjectVersion
1070
     0
  0
ACAD_PROXY_OBJECT
  5
42
102
{ACAD_REACTORS
330
2A
102
}
330
2A
100
AcDbProxyObject
 90
      499
 91
      501
 93
      420
310
4194DA1859195911B40902404333333333333E33F0000000000000F9010740A41107004050150800405405064090840C02480A0B40
1001
ACAD
1000
AcDbSavedByObjectVersion
1070
     0
  0
ACAD_PROXY_OBJECT
  5
41
102
{ACAD_REACTORS
330
2A
102
}
330
2A
100
AcDbProxyObject
 90
      499
 91
      501
 93
      516
310
4454DA18591959081DDA5D1A08195919D95CD1A40902404333333333333E33F0000000000000F901074090142907004050250800405405064090740C02480A0B40
1001
ACAD
1000
AcDbSavedByObjectVersion
1070
     0
  0
ACAD_PROXY_OBJECT
  5
3E
102
{ACAD_REACTORS
330
2A
102
}
330
2A
100
AcDbProxyObject
 90
      499
 91
      501
 93
      532
310
4394DA1859195CC81BD98811DC985E5174090240C333333333333E33F0000000000000F901079024090741D01000000000000111010841D405064090740C02480A0340
1001
ACAD
1000
AcDbSavedByObjectVersion
1070
     0
  0
ACAD_PROXY_OBJECT
  5
3F
102
{ACAD_REACTORS
330
2A
102
}
330
2A
100
AcDbProxyObject
 90
      499
 91
      501
 93
      476
310
41D4DAD95D18DA1E51840502408333333333333E33F0000000000000F901079024090741D01000000000000111010B41D405064090741802480A0340
1001
ACAD
1000
AcDbSavedByObjectVersion
1070
     0
  0
ACAD_PROXY_OBJECT
  5
37
102
{ACAD_REACTORS
330
2A
102
}
330
2A
100
AcDbProxyObject
 90
      499
 91
      501
 93
      412
310
41D51A1A58DAD95B90D409028333333333333E33F0000000000000F9010790141107004050150C41D405064090741402480A0350
1001
ACAD
1000
AcDbSavedByObjectVersion
1070
     0
  0
ACAD_PROXY_OBJECT
  5
30
102
{ACAD_REACTORS
330
2A
102
}
330
2A
100
AcDbProxyObject
 90
      499
 91
      501
 93
      420
310
4255DA5C99599C985B595059028333333333333E33F0000000000000F90107901411070040501600405405064090740C02480A0340
1001
ACAD
1000
AcDbSavedByObjectVersion
1070
     0
  0
ACAD_PROXY_OBJECT
  5
40
102
{ACAD_REACTORS
330
2A
102
}
330
2A
100
AcDbProxyObject
 90
      499
 91
      501
 93
      404
310
41560B54985E51940902404000000000000E03F0000000000000F9010740501907004050150841D405064090740C02480A1B40
1001
ACAD
1000
AcDbSavedByObjectVersion
1070
     0
  0
XRECORD
  5
18D
102
{ACAD_REACTORS
330
183
102
}
330
183
100
AcDbXrecord
340
0
  0
XRECORD
  5
18C
102
{ACAD_REACTORS
330
183
102
}
330
183
100
AcDbXrecord
 90
        0
  0
XRECORD
  5
1A3
102
{ACAD_REACTORS
330
183
102
}
330
183
100
AcDbXrecord
1000
DSTYLE
1002
{
1070
   171
 70
     2
1070
   143
 40
25.4
1070
   274
 70
     2
1070
    41
 40
0.18
1070
   141
 40
0.09
1070
   271
 70
     4
1070
    43
 40
0.38
1070
   278
 70
    46
1070
    44
 40
0.18
1070
    42
 40
0.0625
1070
   147
 40
0.09
1070
    77
 70
     0
1070
   272
 70
     4
1070
    73
 70
     1
1070
   172
 70
     0
1070
    74
 70
     1
1070
   283
 70
     1
1070
   340
340
11
1070
   140
 40
0.18
1070
   284
 70
     0
1070
    78
 70
     0
1002
}
  0
XRECORD
  5
18E
102
{ACAD_REACTORS
330
183
102
}
330
183
100
AcDbXrecord
  1
{27F37E29-5F2E-4DD9-8552-9875AA5B3963}
  0
XRECORD
  5
186
102
{ACAD_REACTORS
330
183
102
}
330
183
100
AcDbXrecord
  1

  0
XRECORD
  5
18B
102
{ACAD_REACTORS
330
183
102
}
330
183
100
AcDbXrecord
 90
        4
  0
XRECORD
  5
188
102
{ACAD_REACTORS
330
183
102
}
330
183
100
AcDbXrecord
340
1A
  0
XRECORD
  5
18A
102
{ACAD_REACTORS
330
183
102
}
330
183
100
AcDbXrecord
 90
    10781
  0
XRECORD
  5
189
102
{ACAD_REACTORS
330
183
102
}
330
183
100
AcDbXrecord
340
19
  0
XRECORD
  5
190
102
{ACAD_REACTORS
330
183
102
}
330
183
100
AcDbXrecord
 40
0.0
  0
XRECORD
  5
193
102
{ACAD_REACTORS
330
183
102
}
330
183
100
AcDbXrecord
340
0
  0
XRECORD
  5
199
102
{ACAD_REACTORS
330
183
102
}
330
183
100
AcDbXrecord
 10
0.0
 20
0.0
 30
0.0
  0
XRECORD
  5
195
102
{ACAD_REACTORS
330
183
102
}
330
183
100
AcDbXrecord
 10
0.0
 20
0.0
 30
0.0
  0
XRECORD
  5
198
102
{ACAD_REACTORS
330
183
102
}
330
183
100
AcDbXrecord
 10
0.0
 20
0.0
 30
0.0
  0
XRECORD
  5
196
102
{ACAD_REACTORS
330
183
102
}
330
183
100
AcDbXrecord
 10
0.0
 20
0.0
 30
0.0
  0
XRECORD
  5
197
102
{ACAD_REACTORS
330
183
102
}
330
183
100
AcDbXrecord
 10
0.0
 20
0.0
 30
0.0
  0
XRECORD
  5
194
102
{ACAD_REACTORS
330
183
102
}
330
183
100
AcDbXrecord
 10
0.0
 20
0.0
 30
0.0
  0
XRECORD
  5
191
102
{ACAD_REACTORS
330
183
102
}
330
183
100
AcDbXrecord
340
0
  0
XRECORD
  5
192
102
{ACAD_REACTORS
330
183
102
}
330
183
100
AcDbXrecord
 70
     0
  0
XRECORD
  5
187
102
{ACAD_REACTORS
330
183
102
}
330
183
100
AcDbXrecord
  1

  0
XRECORD
  5
184
102
{ACAD_REACTORS
330
183
102
}
330
183
100
AcDbXrecord
 90
        1
  0
XRECORD
  5
185
102
{ACAD_REACTORS
330
183
102
}
330
183
100
AcDbXrecord
 90
       70
  0
XRECORD
  5
19C
102
{ACAD_REACTORS
330
183
102
}
330
183
100
AcDbXrecord
340
0
  0
XRECORD
  5
1A2
102
{ACAD_REACTORS
330
183
102
}
330
183
100
AcDbXrecord
 10
0.0
 20
0.0
 30
0.0
  0
XRECORD
  5
19E
102
{ACAD_REACTORS
330
183
102
}
330
183
100
AcDbXrecord
 10
0.0
 20
0.0
 30
0.0
  0
XRECORD
  5
1A1
102
{ACAD_REACTORS
330
183
102
}
330
183
100
AcDbXrecord
 10
0.0
 20
0.0
 30
0.0
  0
XRECORD
  5
19F
102
{ACAD_REACTORS
330
183
102
}
330
183
100
AcDbXrecord
 10
0.0
 20
0.0
 30
0.0
  0
XRECORD
  5
1A0
102
{ACAD_REACTORS
330
183
102
}
330
183
100
AcDbXrecord
 10
0.0
 20
0.0
 30
0.0
  0
XRECORD
  5
19D
102
{ACAD_REACTORS
330
183
102
}
330
183
100
AcDbXrecord
 10
0.0
 20
0.0
 30
0.0
  0
XRECORD
  5
19A
102
{ACAD_REACTORS
330
183
102
}
330
183
100
AcDbXrecord
340
0
  0
XRECORD
  5
19B
102
{ACAD_REACTORS
330
183
102
}
330
183
100
AcDbXrecord
 70
     0
  0
XRECORD
  5
18F
102
{ACAD_REACTORS
330
183
102
}
330
183
100
AcDbXrecord
  1
{FAEB1C32-E019-11D5-929B-00C0DF256EC4}
  0
DICTIONARYVAR
  5
1AD
102
{ACAD_REACTORS
330
1A4
102
}
330
1A4
100
DictionaryVariables
280
     0
  1
1:1
  0
DICTIONARYVAR
  5
1A6
102
{ACAD_REACTORS
330
1A4
102
}
330
1A4
100
DictionaryVariables
280
     0
  1
Standard
  0
DICTIONARYVAR
  5
1A5
102
{ACAD_REACTORS
330
1A4
102
}
330
1A4
100
DictionaryVariables
280
     0
  1
Standard
  0
DICTIONARYVAR
  5
1A9
102
{ACAD_REACTORS
330
1A4
102
}
330
1A4
100
DictionaryVariables
280
     0
  1
2
  0
DICTIONARYVAR
  5
1AA
102
{ACAD_REACTORS
330
1A4
102
}
330
1A4
100
DictionaryVariables
280
     0
  1
1
  0
DICTIONARYVAR
  5
1AE
102
{ACAD_REACTORS
330
1A4
102
}
330
1A4
100
DictionaryVariables
280
     0
  1
1
  0
DICTIONARY
  5
1B1
330
45
100
AcDbDictionary
280
     1
  3
ACAD_XREC_ROUNDTRIP
360
1B2
  0
DICTIONARY
  5
1AF
330
44
100
AcDbDictionary
280
     1
  3
ACAD_XREC_ROUNDTRIP
360
1B0
  0
DICTIONARY
  5
1B3
330
46
100
AcDbDictionary
280
     1
  3
ACAD_XREC_ROUNDTRIP
360
1B4
  0
XRECORD
  5
1B2
102
{ACAD_REACTORS
330
1B1
102
}
330
1B1
100
AcDbXrecord
102
MATERIAL
148
0.0
149
0.0
149
0.0
 93
        0
 94
      127
282
     0
 72
     1
 77
     1
171
     1
175
     1
179
     1
273
     0
  0
XRECORD
  5
1B0
102
{ACAD_REACTORS
330
1AF
102
}
330
1AF
100
AcDbXrecord
102
MATERIAL
148
0.0
149
0.0
149
0.0
 93
        0
 94
      127
282
     0
 72
     1
 77
     1
171
     1
175
     1
179
     1
273
     0
  0
XRECORD
  5
1B4
102
{ACAD_REACTORS
330
1B3
102
}
330
1B3
100
AcDbXrecord
102
MATERIAL
148
0.0
149
0.0
149
0.0
 93
        0
 94
      127
282
     0
 72
     1
 77
     1
171
     1
175
     1
179
     1
273
     0
  0
ENDSEC
  0
EOF
