solid combined_for_3d_printing
facet normal 0.0 -1.0 -0.0
  outer loop
    vertex 17.92292493499057 0.0 4.548159976772594
    vertex 20.711574191366424 0.0 4.9491072094046675
    vertex 19.288425808633576 0.0 4.949107209404667
  endloop
endfacet
facet normal 0.0 -1.0 -0.0
  outer loop
    vertex 20.711574191366424 0.0 4.9491072094046675
    vertex 17.92292493499057 0.0 4.548159976772594
    vertex 22.07707506500943 0.0 4.548159976772596
  endloop
endfacet
facet normal 0.0 -1.0 -0.0
  outer loop
    vertex 22.07707506500943 0.0 4.548159976772596
    vertex 17.92292493499057 0.0 4.548159976772594
    vertex 23.274303669726425 0.0 3.778747871771295
  endloop
endfacet
facet normal 0.0 -1.0 -0.0
  outer loop
    vertex 23.274303669726425 0.0 3.778747871771295
    vertex 17.92292493499057 0.0 4.548159976772594
    vertex 16.725696330273575 0.0 3.778747871771293
  endloop
endfacet
facet normal 0.0 -1.0 -0.0
  outer loop
    vertex 23.274303669726425 0.0 3.778747871771295
    vertex 16.725696330273575 0.0 3.778747871771293
    vertex 15.793732335844087 0.0 2.7032040872779888
  endloop
endfacet
facet normal 0.0 -1.0 -0.0
  outer loop
    vertex 23.274303669726425 0.0 3.778747871771295
    vertex 15.793732335844087 0.0 2.7032040872779888
    vertex 24.206267664155902 0.0 2.703204087277992
  endloop
endfacet
facet normal 0.0 -1.0 -0.0
  outer loop
    vertex 24.206267664155902 0.0 2.703204087277992
    vertex 15.793732335844087 0.0 2.7032040872779888
    vertex 24.797464868072485 0.0 1.4086627842071513
  endloop
endfacet
facet normal 0.0 -1.0 -0.0
  outer loop
    vertex 24.797464868072485 0.0 1.4086627842071513
    vertex 15.793732335844087 0.0 2.7032040872779888
    vertex 15.202535131927506 0.0 1.408662784207149
  endloop
endfacet
facet normal 0.0 -1.0 -0.0
  outer loop
    vertex 24.797464868072485 0.0 1.4086627842071513
    vertex 15.202535131927506 0.0 1.408662784207149
    vertex 15.000000000000007 0.0 0.0
  endloop
endfacet
facet normal 0.0 -1.0 -0.0
  outer loop
    vertex 24.797464868072485 0.0 1.4086627842071513
    vertex 15.000000000000007 0.0 0.0
    vertex 25.000000000000007 0.0 2.8199664825478975e-15
  endloop
endfacet
facet normal 0.9096319953545179 -0.0 0.4154150130018877
  outer loop
    vertex 24.797464868072485 23.1 1.4086627842071513
    vertex 24.206267664155902 0.0 2.703204087277992
    vertex 24.797464868072485 0.0 1.4086627842071513
  endloop
endfacet
facet normal 0.9096319953545179 -0.0 0.4154150130018877
  outer loop
    vertex 24.206267664155902 0.0 2.703204087277992
    vertex 24.797464868072485 23.1 1.4086627842071513
    vertex 24.206267664155902 23.1 2.703204087277992
  endloop
endfacet
facet normal 0.7557495743542597 -0.0 0.6548607339452834
  outer loop
    vertex 24.206267664155902 23.1 2.703204087277992
    vertex 23.274303669726425 0.0 3.778747871771295
    vertex 24.206267664155902 0.0 2.703204087277992
  endloop
endfacet
facet normal 0.7557495743542597 -0.0 0.6548607339452834
  outer loop
    vertex 23.274303669726425 0.0 3.778747871771295
    vertex 24.206267664155902 23.1 2.703204087277992
    vertex 23.274303669726425 23.1 3.778747871771295
  endloop
endfacet
facet normal -2.3592239273284576e-16 -0.0 1.0
  outer loop
    vertex 19.288425808633576 23.1 4.949107209404667
    vertex 20.711574191366424 0.0 4.9491072094046675
    vertex 20.711574191366424 23.1 4.9491072094046675
  endloop
endfacet
facet normal -2.3592239273284576e-16 -0.0 1.0
  outer loop
    vertex 20.711574191366424 0.0 4.9491072094046675
    vertex 19.288425808633576 23.1 4.949107209404667
    vertex 19.288425808633576 0.0 4.949107209404667
  endloop
endfacet
facet normal 0.9898214418809319 -0.0 0.14231483827329142
  outer loop
    vertex 25.000000000000007 23.1 2.8199664825478975e-15
    vertex 24.797464868072485 0.0 1.4086627842071513
    vertex 25.000000000000007 0.0 2.8199664825478975e-15
  endloop
endfacet
facet normal 0.9898214418809319 -0.0 0.14231483827329142
  outer loop
    vertex 24.797464868072485 0.0 1.4086627842071513
    vertex 25.000000000000007 23.1 2.8199664825478975e-15
    vertex 24.797464868072485 23.1 1.4086627842071513
  endloop
endfacet
facet normal -0.2817325568414296 0.0 0.9594929736144976
  outer loop
    vertex 17.92292493499057 23.1 4.548159976772594
    vertex 19.288425808633576 0.0 4.949107209404667
    vertex 19.288425808633576 23.1 4.949107209404667
  endloop
endfacet
facet normal -0.2817325568414296 0.0 0.9594929736144976
  outer loop
    vertex 19.288425808633576 0.0 4.949107209404667
    vertex 17.92292493499057 23.1 4.548159976772594
    vertex 17.92292493499057 0.0 4.548159976772594
  endloop
endfacet
facet normal 0.0 1.0 0.0
  outer loop
    vertex 22.07707506500943 23.1 4.548159976772596
    vertex 19.288425808633576 23.1 4.949107209404667
    vertex 20.711574191366424 23.1 4.9491072094046675
  endloop
endfacet
facet normal 0.0 1.0 0.0
  outer loop
    vertex 19.288425808633576 23.1 4.949107209404667
    vertex 22.07707506500943 23.1 4.548159976772596
    vertex 17.92292493499057 23.1 4.548159976772594
  endloop
endfacet
facet normal 0.0 1.0 0.0
  outer loop
    vertex 17.92292493499057 23.1 4.548159976772594
    vertex 22.07707506500943 23.1 4.548159976772596
    vertex 23.274303669726425 23.1 3.778747871771295
  endloop
endfacet
facet normal 0.0 1.0 0.0
  outer loop
    vertex 17.92292493499057 23.1 4.548159976772594
    vertex 23.274303669726425 23.1 3.778747871771295
    vertex 16.725696330273575 23.1 3.778747871771293
  endloop
endfacet
facet normal 0.0 1.0 0.0
  outer loop
    vertex 16.725696330273575 23.1 3.778747871771293
    vertex 23.274303669726425 23.1 3.778747871771295
    vertex 24.206267664155902 23.1 2.703204087277992
  endloop
endfacet
facet normal 0.0 1.0 0.0
  outer loop
    vertex 16.725696330273575 23.1 3.778747871771293
    vertex 24.206267664155902 23.1 2.703204087277992
    vertex 15.793732335844087 23.1 2.7032040872779888
  endloop
endfacet
facet normal 0.0 1.0 0.0
  outer loop
    vertex 15.793732335844087 23.1 2.7032040872779888
    vertex 24.206267664155902 23.1 2.703204087277992
    vertex 24.797464868072485 23.1 1.4086627842071513
  endloop
endfacet
facet normal 0.0 1.0 0.0
  outer loop
    vertex 15.793732335844087 23.1 2.7032040872779888
    vertex 24.797464868072485 23.1 1.4086627842071513
    vertex 15.202535131927506 23.1 1.408662784207149
  endloop
endfacet
facet normal 0.0 1.0 0.0
  outer loop
    vertex 15.202535131927506 23.1 1.408662784207149
    vertex 24.797464868072485 23.1 1.4086627842071513
    vertex 25.000000000000007 23.1 2.8199664825478975e-15
  endloop
endfacet
facet normal 0.0 1.0 0.0
  outer loop
    vertex 15.202535131927506 23.1 1.408662784207149
    vertex 25.000000000000007 23.1 2.8199664825478975e-15
    vertex 15.000000000000007 23.1 0.0
  endloop
endfacet
facet normal -0.5406408174555974 0.0 0.8412535328311813
  outer loop
    vertex 16.725696330273575 23.1 3.778747871771293
    vertex 17.92292493499057 0.0 4.548159976772594
    vertex 17.92292493499057 23.1 4.548159976772594
  endloop
endfacet
facet normal -0.5406408174555974 0.0 0.8412535328311813
  outer loop
    vertex 17.92292493499057 0.0 4.548159976772594
    vertex 16.725696330273575 23.1 3.778747871771293
    vertex 16.725696330273575 0.0 3.778747871771293
  endloop
endfacet
facet normal 0.28173255684142867 -0.0 0.9594929736144978
  outer loop
    vertex 20.711574191366424 23.1 4.9491072094046675
    vertex 22.07707506500943 0.0 4.548159976772596
    vertex 22.07707506500943 23.1 4.548159976772596
  endloop
endfacet
facet normal 0.28173255684142867 -0.0 0.9594929736144978
  outer loop
    vertex 22.07707506500943 0.0 4.548159976772596
    vertex 20.711574191366424 23.1 4.9491072094046675
    vertex 20.711574191366424 0.0 4.9491072094046675
  endloop
endfacet
facet normal -0.9898214418809343 0.0 0.1423148382732754
  outer loop
    vertex 15.202535131927506 23.1 1.408662784207149
    vertex 15.000000000000007 0.0 0.0
    vertex 15.202535131927506 0.0 1.408662784207149
  endloop
endfacet
facet normal -0.9898214418809343 0.0 0.1423148382732754
  outer loop
    vertex 15.000000000000007 0.0 0.0
    vertex 15.202535131927506 23.1 1.408662784207149
    vertex 15.000000000000007 23.1 0.0
  endloop
endfacet
facet normal 0.5406408174555974 -0.0 0.8412535328311814
  outer loop
    vertex 22.07707506500943 23.1 4.548159976772596
    vertex 23.274303669726425 0.0 3.778747871771295
    vertex 23.274303669726425 23.1 3.778747871771295
  endloop
endfacet
facet normal 0.5406408174555974 -0.0 0.8412535328311814
  outer loop
    vertex 23.274303669726425 0.0 3.778747871771295
    vertex 22.07707506500943 23.1 4.548159976772596
    vertex 22.07707506500943 0.0 4.548159976772596
  endloop
endfacet
facet normal 2.9715473269021344e-16 0.0 -1.0
  outer loop
    vertex 15.000000000000007 0.0 0.0
    vertex 25.000000000000007 23.1 2.8199664825478975e-15
    vertex 25.000000000000007 0.0 2.8199664825478975e-15
  endloop
endfacet
facet normal 2.9715473269021344e-16 0.0 -1.0
  outer loop
    vertex 25.000000000000007 23.1 2.8199664825478975e-15
    vertex 15.000000000000007 0.0 0.0
    vertex 15.000000000000007 23.1 0.0
  endloop
endfacet
facet normal -0.9096319953545179 0.0 0.4154150130018876
  outer loop
    vertex 15.793732335844087 23.1 2.7032040872779888
    vertex 15.202535131927506 0.0 1.408662784207149
    vertex 15.793732335844087 0.0 2.7032040872779888
  endloop
endfacet
facet normal -0.9096319953545179 0.0 0.4154150130018876
  outer loop
    vertex 15.202535131927506 0.0 1.408662784207149
    vertex 15.793732335844087 23.1 2.7032040872779888
    vertex 15.202535131927506 23.1 1.408662784207149
  endloop
endfacet
facet normal -0.7557495743542565 0.0 0.6548607339452871
  outer loop
    vertex 16.725696330273575 23.1 3.778747871771293
    vertex 15.793732335844087 0.0 2.7032040872779888
    vertex 16.725696330273575 0.0 3.778747871771293
  endloop
endfacet
facet normal -0.7557495743542565 0.0 0.6548607339452871
  outer loop
    vertex 15.793732335844087 0.0 2.7032040872779888
    vertex 16.725696330273575 23.1 3.778747871771293
    vertex 15.793732335844087 23.1 2.7032040872779888
  endloop
endfacet
facet normal 0.0 -1.0 -0.0
  outer loop
    vertex 2.922924934990564 0.0 4.548159976772595
    vertex 5.711574191366419 0.0 4.9491072094046675
    vertex 4.288425808633574 0.0 4.9491072094046675
  endloop
endfacet
facet normal 0.0 -1.0 -0.0
  outer loop
    vertex 5.711574191366419 0.0 4.9491072094046675
    vertex 2.922924934990564 0.0 4.548159976772595
    vertex 7.077075065009429 0.0 4.548159976772596
  endloop
endfacet
facet normal 0.0 -1.0 -0.0
  outer loop
    vertex 7.077075065009429 0.0 4.548159976772596
    vertex 2.922924934990564 0.0 4.548159976772595
    vertex 8.274303669726423 0.0 3.778747871771296
  endloop
endfacet
facet normal 0.0 -1.0 -0.0
  outer loop
    vertex 8.274303669726423 0.0 3.778747871771296
    vertex 2.922924934990564 0.0 4.548159976772595
    vertex 1.72569633027357 0.0 3.778747871771294
  endloop
endfacet
facet normal 0.0 -1.0 -0.0
  outer loop
    vertex 8.274303669726423 0.0 3.778747871771296
    vertex 1.72569633027357 0.0 3.778747871771294
    vertex 0.793732335844083 0.0 2.7032040872779897
  endloop
endfacet
facet normal 0.0 -1.0 -0.0
  outer loop
    vertex 8.274303669726423 0.0 3.778747871771296
    vertex 0.793732335844083 0.0 2.7032040872779897
    vertex 9.206267664155899 0.0 2.7032040872779928
  endloop
endfacet
facet normal 0.0 -1.0 -0.0
  outer loop
    vertex 9.206267664155899 0.0 2.7032040872779928
    vertex 0.793732335844083 0.0 2.7032040872779897
    vertex 9.797464868072483 0.0 1.408662784207152
  endloop
endfacet
facet normal 0.0 -1.0 -0.0
  outer loop
    vertex 9.797464868072483 0.0 1.408662784207152
    vertex 0.793732335844083 0.0 2.7032040872779897
    vertex 0.20253513192750067 0.0 1.40866278420715
  endloop
endfacet
facet normal 0.0 -1.0 -0.0
  outer loop
    vertex 9.797464868072483 0.0 1.408662784207152
    vertex 0.20253513192750067 0.0 1.40866278420715
    vertex 1.4099832412739487e-15 0.0 7.049916206369744e-16
  endloop
endfacet
facet normal 0.0 -1.0 -0.0
  outer loop
    vertex 9.797464868072483 0.0 1.408662784207152
    vertex 1.4099832412739487e-15 0.0 7.049916206369744e-16
    vertex 10.000000000000005 0.0 3.524958103184872e-15
  endloop
endfacet
facet normal 0.9096319953545179 -0.0 0.4154150130018877
  outer loop
    vertex 9.797464868072483 23.1 1.408662784207152
    vertex 9.206267664155899 0.0 2.7032040872779928
    vertex 9.797464868072483 0.0 1.408662784207152
  endloop
endfacet
facet normal 0.9096319953545179 -0.0 0.4154150130018877
  outer loop
    vertex 9.206267664155899 0.0 2.7032040872779928
    vertex 9.797464868072483 23.1 1.408662784207152
    vertex 9.206267664155899 23.1 2.7032040872779928
  endloop
endfacet
facet normal 0.7557495743542597 -0.0 0.6548607339452834
  outer loop
    vertex 9.206267664155899 23.1 2.7032040872779928
    vertex 8.274303669726423 0.0 3.778747871771296
    vertex 9.206267664155899 0.0 2.7032040872779928
  endloop
endfacet
facet normal 0.7557495743542597 -0.0 0.6548607339452834
  outer loop
    vertex 8.274303669726423 0.0 3.778747871771296
    vertex 9.206267664155899 23.1 2.7032040872779928
    vertex 8.274303669726423 23.1 3.778747871771296
  endloop
endfacet
facet normal -2.3592239273284576e-16 -0.0 1.0
  outer loop
    vertex 4.288425808633574 23.1 4.9491072094046675
    vertex 5.711574191366419 0.0 4.9491072094046675
    vertex 5.711574191366419 23.1 4.9491072094046675
  endloop
endfacet
facet normal -2.3592239273284576e-16 -0.0 1.0
  outer loop
    vertex 5.711574191366419 0.0 4.9491072094046675
    vertex 4.288425808633574 23.1 4.9491072094046675
    vertex 4.288425808633574 0.0 4.9491072094046675
  endloop
endfacet
facet normal 0.9898214418809319 -0.0 0.14231483827329142
  outer loop
    vertex 10.000000000000005 23.1 3.524958103184872e-15
    vertex 9.797464868072483 0.0 1.408662784207152
    vertex 10.000000000000005 0.0 3.524958103184872e-15
  endloop
endfacet
facet normal 0.9898214418809319 -0.0 0.14231483827329142
  outer loop
    vertex 9.797464868072483 0.0 1.408662784207152
    vertex 10.000000000000005 23.1 3.524958103184872e-15
    vertex 9.797464868072483 23.1 1.408662784207152
  endloop
endfacet
facet normal -0.2817325568414296 0.0 0.9594929736144976
  outer loop
    vertex 2.922924934990564 23.1 4.548159976772595
    vertex 4.288425808633574 0.0 4.9491072094046675
    vertex 4.288425808633574 23.1 4.9491072094046675
  endloop
endfacet
facet normal -0.2817325568414296 0.0 0.9594929736144976
  outer loop
    vertex 4.288425808633574 0.0 4.9491072094046675
    vertex 2.922924934990564 23.1 4.548159976772595
    vertex 2.922924934990564 0.0 4.548159976772595
  endloop
endfacet
facet normal 0.0 1.0 0.0
  outer loop
    vertex 7.077075065009429 23.1 4.548159976772596
    vertex 4.288425808633574 23.1 4.9491072094046675
    vertex 5.711574191366419 23.1 4.9491072094046675
  endloop
endfacet
facet normal 0.0 1.0 0.0
  outer loop
    vertex 4.288425808633574 23.1 4.9491072094046675
    vertex 7.077075065009429 23.1 4.548159976772596
    vertex 2.922924934990564 23.1 4.548159976772595
  endloop
endfacet
facet normal 0.0 1.0 0.0
  outer loop
    vertex 2.922924934990564 23.1 4.548159976772595
    vertex 7.077075065009429 23.1 4.548159976772596
    vertex 8.274303669726423 23.1 3.778747871771296
  endloop
endfacet
facet normal 0.0 1.0 0.0
  outer loop
    vertex 2.922924934990564 23.1 4.548159976772595
    vertex 8.274303669726423 23.1 3.778747871771296
    vertex 1.72569633027357 23.1 3.778747871771294
  endloop
endfacet
facet normal 0.0 1.0 0.0
  outer loop
    vertex 1.72569633027357 23.1 3.778747871771294
    vertex 8.274303669726423 23.1 3.778747871771296
    vertex 9.206267664155899 23.1 2.7032040872779928
  endloop
endfacet
facet normal 0.0 1.0 0.0
  outer loop
    vertex 1.72569633027357 23.1 3.778747871771294
    vertex 9.206267664155899 23.1 2.7032040872779928
    vertex 0.793732335844083 23.1 2.7032040872779897
  endloop
endfacet
facet normal 0.0 1.0 0.0
  outer loop
    vertex 0.793732335844083 23.1 2.7032040872779897
    vertex 9.206267664155899 23.1 2.7032040872779928
    vertex 9.797464868072483 23.1 1.408662784207152
  endloop
endfacet
facet normal 0.0 1.0 0.0
  outer loop
    vertex 0.793732335844083 23.1 2.7032040872779897
    vertex 9.797464868072483 23.1 1.408662784207152
    vertex 0.20253513192750067 23.1 1.40866278420715
  endloop
endfacet
facet normal 0.0 1.0 0.0
  outer loop
    vertex 0.20253513192750067 23.1 1.40866278420715
    vertex 9.797464868072483 23.1 1.408662784207152
    vertex 10.000000000000005 23.1 3.524958103184872e-15
  endloop
endfacet
facet normal 0.0 1.0 0.0
  outer loop
    vertex 0.20253513192750067 23.1 1.40866278420715
    vertex 10.000000000000005 23.1 3.524958103184872e-15
    vertex 1.4099832412739487e-15 23.1 7.049916206369744e-16
  endloop
endfacet
facet normal -0.5406408174555974 0.0 0.8412535328311813
  outer loop
    vertex 1.72569633027357 23.1 3.778747871771294
    vertex 2.922924934990564 0.0 4.548159976772595
    vertex 2.922924934990564 23.1 4.548159976772595
  endloop
endfacet
facet normal -0.5406408174555974 0.0 0.8412535328311813
  outer loop
    vertex 2.922924934990564 0.0 4.548159976772595
    vertex 1.72569633027357 23.1 3.778747871771294
    vertex 1.72569633027357 0.0 3.778747871771294
  endloop
endfacet
facet normal 0.28173255684142867 -0.0 0.9594929736144978
  outer loop
    vertex 5.711574191366419 23.1 4.9491072094046675
    vertex 7.077075065009429 0.0 4.548159976772596
    vertex 7.077075065009429 23.1 4.548159976772596
  endloop
endfacet
facet normal 0.28173255684142867 -0.0 0.9594929736144978
  outer loop
    vertex 7.077075065009429 0.0 4.548159976772596
    vertex 5.711574191366419 23.1 4.9491072094046675
    vertex 5.711574191366419 0.0 4.9491072094046675
  endloop
endfacet
facet normal -0.9898214418809343 0.0 0.1423148382732754
  outer loop
    vertex 0.20253513192750067 23.1 1.40866278420715
    vertex 1.4099832412739487e-15 0.0 7.049916206369744e-16
    vertex 0.20253513192750067 0.0 1.40866278420715
  endloop
endfacet
facet normal -0.9898214418809343 0.0 0.1423148382732754
  outer loop
    vertex 1.4099832412739487e-15 0.0 7.049916206369744e-16
    vertex 0.20253513192750067 23.1 1.40866278420715
    vertex 1.4099832412739487e-15 23.1 7.049916206369744e-16
  endloop
endfacet
facet normal 0.5406408174555974 -0.0 0.8412535328311814
  outer loop
    vertex 7.077075065009429 23.1 4.548159976772596
    vertex 8.274303669726423 0.0 3.778747871771296
    vertex 8.274303669726423 23.1 3.778747871771296
  endloop
endfacet
facet normal 0.5406408174555974 -0.0 0.8412535328311814
  outer loop
    vertex 8.274303669726423 0.0 3.778747871771296
    vertex 7.077075065009429 23.1 4.548159976772596
    vertex 7.077075065009429 0.0 4.548159976772596
  endloop
endfacet
facet normal 2.9715473269021344e-16 0.0 -1.0
  outer loop
    vertex 1.4099832412739487e-15 0.0 7.049916206369744e-16
    vertex 10.000000000000005 23.1 3.524958103184872e-15
    vertex 10.000000000000005 0.0 3.524958103184872e-15
  endloop
endfacet
facet normal 2.9715473269021344e-16 0.0 -1.0
  outer loop
    vertex 10.000000000000005 23.1 3.524958103184872e-15
    vertex 1.4099832412739487e-15 0.0 7.049916206369744e-16
    vertex 1.4099832412739487e-15 23.1 7.049916206369744e-16
  endloop
endfacet
facet normal -0.9096319953545179 0.0 0.4154150130018876
  outer loop
    vertex 0.793732335844083 23.1 2.7032040872779897
    vertex 0.20253513192750067 0.0 1.40866278420715
    vertex 0.793732335844083 0.0 2.7032040872779897
  endloop
endfacet
facet normal -0.9096319953545179 0.0 0.4154150130018876
  outer loop
    vertex 0.20253513192750067 0.0 1.40866278420715
    vertex 0.793732335844083 23.1 2.7032040872779897
    vertex 0.20253513192750067 23.1 1.40866278420715
  endloop
endfacet
facet normal -0.7557495743542565 0.0 0.6548607339452871
  outer loop
    vertex 1.72569633027357 23.1 3.778747871771294
    vertex 0.793732335844083 0.0 2.7032040872779897
    vertex 1.72569633027357 0.0 3.778747871771294
  endloop
endfacet
facet normal -0.7557495743542565 0.0 0.6548607339452871
  outer loop
    vertex 0.793732335844083 0.0 2.7032040872779897
    vertex 1.72569633027357 23.1 3.778747871771294
    vertex 0.793732335844083 23.1 2.7032040872779897
  endloop
endfacet
endsolid combined_for_3d_printing
