solid combined_for_3d_printing
facet normal 0.0 -0.0 -1.0
  outer loop
    vertex 41.99999999999998 5.639932965095795e-15 0.0
    vertex 39.999999999999986 2.0000000000000075 0.0
    vertex 41.99999999999997 23.10000000000001 0.0
  endloop
endfacet
facet normal 0.0 -0.0 -1.0
  outer loop
    vertex 39.999999999999986 2.0000000000000075 0.0
    vertex 41.99999999999998 5.639932965095795e-15 0.0
    vertex 30.0 0.0 0.0
  endloop
endfacet
facet normal 0.0 -0.0 -1.0
  outer loop
    vertex 39.999999999999986 2.0000000000000075 0.0
    vertex 30.0 0.0 0.0
    vertex 30.0 2.0000000000000018 0.0
  endloop
endfacet
facet normal 0.0 -0.0 -1.0
  outer loop
    vertex 41.99999999999997 23.10000000000001 0.0
    vertex 39.99999999999997 21.10000000000001 0.0
    vertex 29.99999999999999 23.1 0.0
  endloop
endfacet
facet normal 0.0 -0.0 -1.0
  outer loop
    vertex 39.99999999999997 21.10000000000001 0.0
    vertex 41.99999999999997 23.10000000000001 0.0
    vertex 39.999999999999986 2.0000000000000075 0.0
  endloop
endfacet
facet normal 0.0 -0.0 -1.0
  outer loop
    vertex 29.99999999999999 23.1 0.0
    vertex 39.99999999999997 21.10000000000001 0.0
    vertex 29.99999999999999 21.100000000000005 0.0
  endloop
endfacet
facet normal -4.0245584642661915e-16 1.0 0.0
  outer loop
    vertex 39.999999999999986 2.0000000000000075 10.0
    vertex 39.999999999999986 2.0000000000000075 0.0
    vertex 30.0 2.0000000000000018 0.0
  endloop
endfacet
facet normal 4.0245584642661915e-16 -1.0 0.0
  outer loop
    vertex 39.99999999999997 21.10000000000001 10.0
    vertex 29.99999999999999 21.100000000000005 0.0
    vertex 39.99999999999997 21.10000000000001 0.0
  endloop
endfacet
facet normal 0.0 0.0 1.0
  outer loop
    vertex 39.99999999999997 23.10000000000001 10.0
    vertex 41.99999999999998 5.639932965095795e-15 10.0
    vertex 41.99999999999997 23.10000000000001 10.0
  endloop
endfacet
facet normal 0.0 0.0 1.0
  outer loop
    vertex 41.99999999999998 5.639932965095795e-15 10.0
    vertex 39.99999999999997 23.10000000000001 10.0
    vertex 39.999999999999986 5.639932965095795e-15 10.0
  endloop
endfacet
facet normal 0.0 0.0 1.0
  outer loop
    vertex 39.999999999999986 5.639932965095795e-15 10.0
    vertex 39.99999999999997 23.10000000000001 10.0
    vertex 39.99999999999997 21.10000000000001 10.0
  endloop
endfacet
facet normal 0.0 0.0 1.0
  outer loop
    vertex 39.999999999999986 5.639932965095795e-15 10.0
    vertex 39.99999999999997 21.10000000000001 10.0
    vertex 39.999999999999986 2.0000000000000075 10.0
  endloop
endfacet
facet normal 4.0245584642661915e-16 -1.0 0.0
  outer loop
    vertex 41.99999999999998 5.639932965095795e-15 10.0
    vertex 30.0 0.0 0.0
    vertex 41.99999999999998 5.639932965095795e-15 0.0
  endloop
endfacet
facet normal 4.0245584642661915e-16 -1.0 0.0
  outer loop
    vertex 30.0 0.0 0.0
    vertex 41.99999999999998 5.639932965095795e-15 10.0
    vertex 39.999999999999986 5.639932965095795e-15 10.0
  endloop
endfacet
facet normal -4.0245584642661915e-16 1.0 0.0
  outer loop
    vertex 39.99999999999997 23.10000000000001 10.0
    vertex 41.99999999999997 23.10000000000001 0.0
    vertex 29.99999999999999 23.1 0.0
  endloop
endfacet
facet normal -4.0245584642661915e-16 1.0 0.0
  outer loop
    vertex 41.99999999999997 23.10000000000001 0.0
    vertex 39.99999999999997 23.10000000000001 10.0
    vertex 41.99999999999997 23.10000000000001 10.0
  endloop
endfacet
facet normal -0.7071067811865474 -2.845792581364341e-16 0.7071067811865477
  outer loop
    vertex 29.99999999999999 23.1 0.0
    vertex 39.99999999999997 21.10000000000001 10.0
    vertex 39.99999999999997 23.10000000000001 10.0
  endloop
endfacet
facet normal -0.7071067811865474 -2.845792581364341e-16 0.7071067811865477
  outer loop
    vertex 39.99999999999997 21.10000000000001 10.0
    vertex 29.99999999999999 23.1 0.0
    vertex 29.99999999999999 21.100000000000005 0.0
  endloop
endfacet
facet normal -1.0 -4.0245584642661915e-16 0.0
  outer loop
    vertex 39.999999999999986 2.0000000000000075 0.0
    vertex 39.99999999999997 21.10000000000001 10.0
    vertex 39.99999999999997 21.10000000000001 0.0
  endloop
endfacet
facet normal -1.0 -4.0245584642661915e-16 0.0
  outer loop
    vertex 39.99999999999997 21.10000000000001 10.0
    vertex 39.999999999999986 2.0000000000000075 0.0
    vertex 39.999999999999986 2.0000000000000075 10.0
  endloop
endfacet
facet normal -0.7071067811865475 -1.8565730006566723e-16 0.7071067811865477
  outer loop
    vertex 30.0 2.0000000000000018 0.0
    vertex 39.999999999999986 5.639932965095795e-15 10.0
    vertex 39.999999999999986 2.0000000000000075 10.0
  endloop
endfacet
facet normal -0.7071067811865475 -1.8565730006566723e-16 0.7071067811865477
  outer loop
    vertex 39.999999999999986 5.639932965095795e-15 10.0
    vertex 30.0 2.0000000000000018 0.0
    vertex 30.0 0.0 0.0
  endloop
endfacet
facet normal 1.0 4.0245584642661915e-16 0.0
  outer loop
    vertex 41.99999999999998 5.639932965095795e-15 10.0
    vertex 41.99999999999997 23.10000000000001 0.0
    vertex 41.99999999999997 23.10000000000001 10.0
  endloop
endfacet
facet normal 1.0 4.0245584642661915e-16 0.0
  outer loop
    vertex 41.99999999999997 23.10000000000001 0.0
    vertex 41.99999999999998 5.639932965095795e-15 10.0
    vertex 41.99999999999998 5.639932965095795e-15 0.0
  endloop
endfacet
facet normal 0.0 0.0 -1.0
  outer loop
    vertex 47.0 23.1 0.0
    vertex 48.99999999999999 21.1 0.0
    vertex 47.0 0.0 0.0
  endloop
endfacet
facet normal 0.0 0.0 -1.0
  outer loop
    vertex 48.99999999999999 21.1 0.0
    vertex 47.0 23.1 0.0
    vertex 58.99999999999998 23.1 0.0
  endloop
endfacet
facet normal 0.0 0.0 -1.0
  outer loop
    vertex 48.99999999999999 21.1 0.0
    vertex 58.99999999999998 23.1 0.0
    vertex 58.99999999999998 21.1 0.0
  endloop
endfacet
facet normal 0.0 0.0 -1.0
  outer loop
    vertex 47.0 0.0 0.0
    vertex 48.99999999999999 1.9999999999999991 0.0
    vertex 58.99999999999998 0.0 0.0
  endloop
endfacet
facet normal 0.0 0.0 -1.0
  outer loop
    vertex 48.99999999999999 1.9999999999999991 0.0
    vertex 47.0 0.0 0.0
    vertex 48.99999999999999 21.1 0.0
  endloop
endfacet
facet normal 0.0 0.0 -1.0
  outer loop
    vertex 58.99999999999998 0.0 0.0
    vertex 48.99999999999999 1.9999999999999991 0.0
    vertex 58.99999999999998 1.9999999999999991 0.0
  endloop
endfacet
facet normal 0.0 -1.0 0.0
  outer loop
    vertex 48.99999999999999 21.1 10.0
    vertex 48.99999999999999 21.1 0.0
    vertex 58.99999999999998 21.1 0.0
  endloop
endfacet
facet normal 0.0 1.0 0.0
  outer loop
    vertex 48.99999999999999 1.9999999999999991 10.0
    vertex 58.99999999999998 1.9999999999999991 0.0
    vertex 48.99999999999999 1.9999999999999991 0.0
  endloop
endfacet
facet normal 0.0 0.0 1.0
  outer loop
    vertex 48.99999999999999 0.0 10.0
    vertex 47.0 23.1 10.0
    vertex 47.0 0.0 10.0
  endloop
endfacet
facet normal 0.0 0.0 1.0
  outer loop
    vertex 47.0 23.1 10.0
    vertex 48.99999999999999 0.0 10.0
    vertex 48.99999999999999 23.1 10.0
  endloop
endfacet
facet normal 0.0 0.0 1.0
  outer loop
    vertex 48.99999999999999 23.1 10.0
    vertex 48.99999999999999 0.0 10.0
    vertex 48.99999999999999 1.9999999999999991 10.0
  endloop
endfacet
facet normal 0.0 0.0 1.0
  outer loop
    vertex 48.99999999999999 23.1 10.0
    vertex 48.99999999999999 1.9999999999999991 10.0
    vertex 48.99999999999999 21.1 10.0
  endloop
endfacet
facet normal 0.0 1.0 0.0
  outer loop
    vertex 47.0 23.1 10.0
    vertex 58.99999999999998 23.1 0.0
    vertex 47.0 23.1 0.0
  endloop
endfacet
facet normal 0.0 1.0 0.0
  outer loop
    vertex 58.99999999999998 23.1 0.0
    vertex 47.0 23.1 10.0
    vertex 48.99999999999999 23.1 10.0
  endloop
endfacet
facet normal 0.0 -1.0 0.0
  outer loop
    vertex 48.99999999999999 0.0 10.0
    vertex 47.0 0.0 0.0
    vertex 58.99999999999998 0.0 0.0
  endloop
endfacet
facet normal 0.0 -1.0 0.0
  outer loop
    vertex 47.0 0.0 0.0
    vertex 48.99999999999999 0.0 10.0
    vertex 47.0 0.0 10.0
  endloop
endfacet
facet normal 0.7071067811865474 0.0 0.7071067811865477
  outer loop
    vertex 58.99999999999998 0.0 0.0
    vertex 48.99999999999999 1.9999999999999991 10.0
    vertex 48.99999999999999 0.0 10.0
  endloop
endfacet
facet normal 0.7071067811865474 0.0 0.7071067811865477
  outer loop
    vertex 48.99999999999999 1.9999999999999991 10.0
    vertex 58.99999999999998 0.0 0.0
    vertex 58.99999999999998 1.9999999999999991 0.0
  endloop
endfacet
facet normal 1.0 0.0 0.0
  outer loop
    vertex 48.99999999999999 21.1 0.0
    vertex 48.99999999999999 1.9999999999999991 10.0
    vertex 48.99999999999999 1.9999999999999991 0.0
  endloop
endfacet
facet normal 1.0 0.0 0.0
  outer loop
    vertex 48.99999999999999 1.9999999999999991 10.0
    vertex 48.99999999999999 21.1 0.0
    vertex 48.99999999999999 21.1 10.0
  endloop
endfacet
facet normal 0.7071067811865475 -9.892195807076687e-17 0.7071067811865477
  outer loop
    vertex 58.99999999999998 21.1 0.0
    vertex 48.99999999999999 23.1 10.0
    vertex 48.99999999999999 21.1 10.0
  endloop
endfacet
facet normal 0.7071067811865475 -9.892195807076687e-17 0.7071067811865477
  outer loop
    vertex 48.99999999999999 23.1 10.0
    vertex 58.99999999999998 21.1 0.0
    vertex 58.99999999999998 23.1 0.0
  endloop
endfacet
facet normal -1.0 0.0 0.0
  outer loop
    vertex 47.0 23.1 10.0
    vertex 47.0 0.0 0.0
    vertex 47.0 0.0 10.0
  endloop
endfacet
facet normal -1.0 0.0 0.0
  outer loop
    vertex 47.0 0.0 0.0
    vertex 47.0 23.1 10.0
    vertex 47.0 23.1 0.0
  endloop
endfacet
endsolid combined_for_3d_printing
